<?xml version="1.0" encoding="UTF-8" standalone="no"?>
<svg
   xmlns:dc="http://purl.org/dc/elements/1.1/"
   xmlns:cc="http://creativecommons.org/ns#"
   xmlns:rdf="http://www.w3.org/1999/02/22-rdf-syntax-ns#"
   xmlns:svg="http://www.w3.org/2000/svg"
   xmlns="http://www.w3.org/2000/svg"
   viewBox="0 0 1328 697.27997"
   height="697.27997"
   width="1328"
   xml:space="preserve"
   id="svg2"
   version="1.1"><metadata
     id="metadata8"><rdf:RDF><cc:Work
         rdf:about=""><dc:format>image/svg+xml</dc:format><dc:type
           rdf:resource="http://purl.org/dc/dcmitype/StillImage" /></cc:Work></rdf:RDF></metadata><defs
     id="defs6"><clipPath
       id="clipPath18"
       clipPathUnits="userSpaceOnUse"><path
         style="clip-rule:evenodd"
         id="path16"
         d="M 0,0 H 4150.0005 V 2180 H 0 Z" /></clipPath><clipPath
       id="clipPath34"
       clipPathUnits="userSpaceOnUse"><path
         style="clip-rule:evenodd"
         id="path32"
         d="M 0,0 H 4150.0005 V 2178.1252 H 0 Z" /></clipPath><clipPath
       id="clipPath348"
       clipPathUnits="userSpaceOnUse"><path
         style="clip-rule:evenodd"
         id="path346"
         d="m 2700.7998,1168.0582 h 20.075 v 20.0749 h -20.075 z" /></clipPath><clipPath
       id="clipPath360"
       clipPathUnits="userSpaceOnUse"><path
         id="path358"
         d="M 0,0 H 4150.0005 V 2200.0002 H 0 Z" /></clipPath><clipPath
       id="clipPath366"
       clipPathUnits="userSpaceOnUse"><path
         id="path364"
         d="M 0,0 H 4150.0005 V 2200.0002 H 0 Z" /></clipPath><clipPath
       id="clipPath372"
       clipPathUnits="userSpaceOnUse"><path
         id="path370"
         d="M 0,0 H 4150.0005 V 2178.1252 H 0 Z" /></clipPath><clipPath
       id="clipPath378"
       clipPathUnits="userSpaceOnUse"><path
         id="path376"
         d="m 2695.781,1426.5225 h 20.075 v 20.0748 h -20.075 z" /></clipPath><clipPath
       id="clipPath390"
       clipPathUnits="userSpaceOnUse"><path
         style="clip-rule:evenodd"
         id="path388"
         d="M 0,0 H 4150.0005 V 2178.1252 H 0 Z" /></clipPath><clipPath
       id="clipPath402"
       clipPathUnits="userSpaceOnUse"><path
         style="clip-rule:evenodd"
         id="path400"
         d="m 2700.8003,438.5368 h 20.075 v 20.07489 h -20.075 z" /></clipPath><clipPath
       id="clipPath414"
       clipPathUnits="userSpaceOnUse"><path
         id="path412"
         d="M 0,0 H 4150.0005 V 2200.0002 H 0 Z" /></clipPath><clipPath
       id="clipPath420"
       clipPathUnits="userSpaceOnUse"><path
         id="path418"
         d="M 0,0 H 4150.0005 V 2200.0002 H 0 Z" /></clipPath><clipPath
       id="clipPath426"
       clipPathUnits="userSpaceOnUse"><path
         id="path424"
         d="M 0,0 H 4150.0005 V 2178.1252 H 0 Z" /></clipPath><clipPath
       id="clipPath432"
       clipPathUnits="userSpaceOnUse"><path
         id="path430"
         d="m 2695.7815,1070.9078 h 20.075 v 20.0749 h -20.075 z" /></clipPath><clipPath
       id="clipPath444"
       clipPathUnits="userSpaceOnUse"><path
         style="clip-rule:evenodd"
         id="path442"
         d="M 0,0 H 4150.0005 V 2178.1252 H 0 Z" /></clipPath><clipPath
       id="clipPath456"
       clipPathUnits="userSpaceOnUse"><path
         style="clip-rule:evenodd"
         id="path454"
         d="m 2700.8003,255.69281 h 20.075 v 20.07489 h -20.075 z" /></clipPath><clipPath
       id="clipPath468"
       clipPathUnits="userSpaceOnUse"><path
         id="path466"
         d="M 0,0 H 4150.0005 V 2200.0002 H 0 Z" /></clipPath><clipPath
       id="clipPath474"
       clipPathUnits="userSpaceOnUse"><path
         id="path472"
         d="M 0,0 H 4150.0005 V 2200.0002 H 0 Z" /></clipPath><clipPath
       id="clipPath480"
       clipPathUnits="userSpaceOnUse"><path
         id="path478"
         d="M 0,0 H 4150.0005 V 2178.1252 H 0 Z" /></clipPath><clipPath
       id="clipPath486"
       clipPathUnits="userSpaceOnUse"><path
         id="path484"
         d="m 2695.7815,978.69598 h 20.075 v 20.07489 h -20.075 z" /></clipPath><clipPath
       id="clipPath498"
       clipPathUnits="userSpaceOnUse"><path
         style="clip-rule:evenodd"
         id="path496"
         d="M 0,0 H 4150.0005 V 2178.1252 H 0 Z" /></clipPath><clipPath
       id="clipPath510"
       clipPathUnits="userSpaceOnUse"><path
         style="clip-rule:evenodd"
         id="path508"
         d="m 2700.8003,340.03412 h 20.075 v 20.07489 h -20.075 z" /></clipPath><clipPath
       id="clipPath522"
       clipPathUnits="userSpaceOnUse"><path
         id="path520"
         d="M 0,0 H 4150.0005 V 2200.0002 H 0 Z" /></clipPath><clipPath
       id="clipPath528"
       clipPathUnits="userSpaceOnUse"><path
         id="path526"
         d="M 0,0 H 4150.0005 V 2200.0002 H 0 Z" /></clipPath><clipPath
       id="clipPath534"
       clipPathUnits="userSpaceOnUse"><path
         id="path532"
         d="M 0,0 H 4150.0005 V 2178.1252 H 0 Z" /></clipPath><clipPath
       id="clipPath540"
       clipPathUnits="userSpaceOnUse"><path
         id="path538"
         d="m 2695.7813,910.15454 h 20.075 v 20.07489 h -20.075 z" /></clipPath><clipPath
       id="clipPath552"
       clipPathUnits="userSpaceOnUse"><path
         style="clip-rule:evenodd"
         id="path550"
         d="M 0,0 H 4150.0005 V 2178.1252 H 0 Z" /></clipPath><clipPath
       id="clipPath564"
       clipPathUnits="userSpaceOnUse"><path
         style="clip-rule:evenodd"
         id="path562"
         d="m 2700.8003,869.49091 h 20.075 v 20.07489 h -20.075 z" /></clipPath><clipPath
       id="clipPath576"
       clipPathUnits="userSpaceOnUse"><path
         id="path574"
         d="M 0,0 H 4150.0005 V 2200.0002 H 0 Z" /></clipPath><clipPath
       id="clipPath582"
       clipPathUnits="userSpaceOnUse"><path
         id="path580"
         d="M 0,0 H 4150.0005 V 2200.0002 H 0 Z" /></clipPath><clipPath
       id="clipPath588"
       clipPathUnits="userSpaceOnUse"><path
         id="path586"
         d="M 0,0 H 4150.0005 V 2178.1252 H 0 Z" /></clipPath><clipPath
       id="clipPath594"
       clipPathUnits="userSpaceOnUse"><path
         id="path592"
         d="m 2695.7815,704.86847 h 20.075 v 20.07489 h -20.075 z" /></clipPath><clipPath
       id="clipPath606"
       clipPathUnits="userSpaceOnUse"><path
         style="clip-rule:evenodd"
         id="path604"
         d="M 0,0 H 4150.0005 V 2178.1252 H 0 Z" /></clipPath><clipPath
       id="clipPath618"
       clipPathUnits="userSpaceOnUse"><path
         style="clip-rule:evenodd"
         id="path616"
         d="m 2700.8003,160.3371 h 20.075 v 20.07489 h -20.075 z" /></clipPath><clipPath
       id="clipPath630"
       clipPathUnits="userSpaceOnUse"><path
         id="path628"
         d="M 0,0 H 4150.0005 V 2200.0002 H 0 Z" /></clipPath><clipPath
       id="clipPath636"
       clipPathUnits="userSpaceOnUse"><path
         id="path634"
         d="M 0,0 H 4150.0005 V 2200.0002 H 0 Z" /></clipPath><clipPath
       id="clipPath642"
       clipPathUnits="userSpaceOnUse"><path
         id="path640"
         d="M 0,0 H 4150.0005 V 2178.1252 H 0 Z" /></clipPath><clipPath
       id="clipPath648"
       clipPathUnits="userSpaceOnUse"><path
         id="path646"
         d="m 2695.7815,892.79266 h 20.075 v 20.07489 h -20.075 z" /></clipPath><clipPath
       id="clipPath660"
       clipPathUnits="userSpaceOnUse"><path
         id="path658"
         d="M 0,0 H 4150.0005 V 2200.0002 H 0 Z" /></clipPath><clipPath
       id="clipPath666"
       clipPathUnits="userSpaceOnUse"><path
         id="path664"
         d="M 0,0 H 4150.0005 V 2200.0002 H 0 Z" /></clipPath><clipPath
       id="clipPath672"
       clipPathUnits="userSpaceOnUse"><path
         id="path670"
         d="M 0,0 H 4150.0005 V 2178.1252 H 0 Z" /></clipPath><clipPath
       id="clipPath678"
       clipPathUnits="userSpaceOnUse"><path
         id="path676"
         d="M 648.77039,592.83649 H 1966.1848 V 2088.4156 H 648.77039 Z" /></clipPath><clipPath
       id="clipPath684"
       clipPathUnits="userSpaceOnUse"><path
         style="clip-rule:evenodd"
         id="path682"
         d="M 649.51544,592.83649 H 1966.1848 V 2087.7905 H 649.51544 m 382.98196,-768.8066 h 242.799 v 42.6592 h -242.799" /></clipPath><clipPath
       id="clipPath696"
       clipPathUnits="userSpaceOnUse"><path
         id="path694"
         d="M 0,0 H 4150.0005 V 2200.0002 H 0 Z" /></clipPath><clipPath
       id="clipPath702"
       clipPathUnits="userSpaceOnUse"><path
         id="path700"
         d="M 0,0 H 4150.0005 V 2200.0002 H 0 Z" /></clipPath><clipPath
       id="clipPath708"
       clipPathUnits="userSpaceOnUse"><path
         id="path706"
         d="M 0,0 H 4150.0005 V 2178.1252 H 0 Z" /></clipPath><clipPath
       id="clipPath714"
       clipPathUnits="userSpaceOnUse"><path
         id="path712"
         d="M 648.77039,592.83649 H 1966.1848 V 2088.4156 H 648.77039 Z" /></clipPath><clipPath
       id="clipPath720"
       clipPathUnits="userSpaceOnUse"><path
         style="clip-rule:evenodd"
         id="path718"
         d="M 649.51544,592.83649 H 1966.1848 V 2087.7905 H 649.51544 m 382.98196,-768.8066 h 242.799 v 42.6592 h -242.799" /></clipPath><clipPath
       id="clipPath726"
       clipPathUnits="userSpaceOnUse"><path
         id="path724"
         d="m 1456.7847,1573.3716 h 20.0748 v 20.0748 h -20.0748 z" /></clipPath><clipPath
       id="clipPath738"
       clipPathUnits="userSpaceOnUse"><path
         id="path736"
         d="M 0,0 H 4150.0005 V 2200.0002 H 0 Z" /></clipPath><clipPath
       id="clipPath744"
       clipPathUnits="userSpaceOnUse"><path
         id="path742"
         d="M 0,0 H 4150.0005 V 2200.0002 H 0 Z" /></clipPath><clipPath
       id="clipPath750"
       clipPathUnits="userSpaceOnUse"><path
         id="path748"
         d="M 0,0 H 4150.0005 V 2178.1252 H 0 Z" /></clipPath><clipPath
       id="clipPath756"
       clipPathUnits="userSpaceOnUse"><path
         id="path754"
         d="M 648.77039,592.83649 H 1966.1848 V 2088.4156 H 648.77039 Z" /></clipPath><clipPath
       id="clipPath762"
       clipPathUnits="userSpaceOnUse"><path
         style="clip-rule:evenodd"
         id="path760"
         d="M 649.51544,592.83649 H 1966.1848 V 2087.7905 H 649.51544 m 382.98196,-768.8066 h 242.799 v 42.6592 h -242.799" /></clipPath><clipPath
       id="clipPath768"
       clipPathUnits="userSpaceOnUse"><path
         id="path766"
         d="m 1461.8033,1092.1993 h 20.0749 v 20.0749 h -20.0749 z" /></clipPath><clipPath
       id="clipPath780"
       clipPathUnits="userSpaceOnUse"><path
         style="clip-rule:evenodd"
         id="path778"
         d="M 0,0 H 4150.0005 V 2178.1252 H 0 Z" /></clipPath><clipPath
       id="clipPath798"
       clipPathUnits="userSpaceOnUse"><path
         id="path796"
         d="M 0,0 H 4150.0005 V 2200.0002 H 0 Z" /></clipPath><clipPath
       id="clipPath804"
       clipPathUnits="userSpaceOnUse"><path
         id="path802"
         d="M 0,0 H 4150.0005 V 2200.0002 H 0 Z" /></clipPath><clipPath
       id="clipPath810"
       clipPathUnits="userSpaceOnUse"><path
         id="path808"
         d="M 0,0 H 4150.0005 V 2178.1252 H 0 Z" /></clipPath><clipPath
       id="clipPath816"
       clipPathUnits="userSpaceOnUse"><path
         id="path814"
         d="M 23.939575,218.94177 H 1966.1848 V 2090.9248 H 23.939575 Z" /></clipPath><clipPath
       id="clipPath822"
       clipPathUnits="userSpaceOnUse"><path
         style="clip-rule:evenodd"
         id="path820"
         d="M 24.587097,220.93872 H 1966.1848 V 2089.9443 H 24.587097 M 407.56909,1134.1121 H 650.3681 v 42.659 H 407.56909" /></clipPath><clipPath
       id="clipPath834"
       clipPathUnits="userSpaceOnUse"><path
         id="path832"
         d="M 0,0 H 4150.0005 V 2200.0002 H 0 Z" /></clipPath><clipPath
       id="clipPath840"
       clipPathUnits="userSpaceOnUse"><path
         id="path838"
         d="M 0,0 H 4150.0005 V 2200.0002 H 0 Z" /></clipPath><clipPath
       id="clipPath846"
       clipPathUnits="userSpaceOnUse"><path
         id="path844"
         d="M 0,0 H 4150.0005 V 2178.1252 H 0 Z" /></clipPath><clipPath
       id="clipPath852"
       clipPathUnits="userSpaceOnUse"><path
         id="path850"
         d="M 23.939575,218.94177 H 1966.1848 V 2090.9248 H 23.939575 Z" /></clipPath><clipPath
       id="clipPath858"
       clipPathUnits="userSpaceOnUse"><path
         style="clip-rule:evenodd"
         id="path856"
         d="M 24.587097,220.93872 H 1966.1848 V 2089.9443 H 24.587097 M 407.56909,1134.1121 H 650.3681 v 42.659 H 407.56909" /></clipPath><clipPath
       id="clipPath864"
       clipPathUnits="userSpaceOnUse"><path
         id="path862"
         d="m 1456.7847,1575.5255 h 20.0748 v 20.0748 h -20.0748 z" /></clipPath><clipPath
       id="clipPath876"
       clipPathUnits="userSpaceOnUse"><path
         id="path874"
         d="M 0,0 H 4150.0005 V 2200.0002 H 0 Z" /></clipPath><clipPath
       id="clipPath882"
       clipPathUnits="userSpaceOnUse"><path
         id="path880"
         d="M 0,0 H 4150.0005 V 2200.0002 H 0 Z" /></clipPath><clipPath
       id="clipPath888"
       clipPathUnits="userSpaceOnUse"><path
         id="path886"
         d="M 0,0 H 4150.0005 V 2178.1252 H 0 Z" /></clipPath><clipPath
       id="clipPath894"
       clipPathUnits="userSpaceOnUse"><path
         id="path892"
         d="M 23.939575,218.94177 H 1966.1848 V 2090.9248 H 23.939575 Z" /></clipPath><clipPath
       id="clipPath900"
       clipPathUnits="userSpaceOnUse"><path
         style="clip-rule:evenodd"
         id="path898"
         d="M 24.587097,220.93872 H 1966.1848 V 2089.9443 H 24.587097 M 407.56909,1134.1121 H 650.3681 v 42.659 H 407.56909" /></clipPath><clipPath
       id="clipPath906"
       clipPathUnits="userSpaceOnUse"><path
         id="path904"
         d="m 1461.8033,720.30151 h 20.0749 v 20.07489 h -20.0749 z" /></clipPath><clipPath
       id="clipPath918"
       clipPathUnits="userSpaceOnUse"><path
         style="clip-rule:evenodd"
         id="path916"
         d="M 0,0 H 4150.0005 V 2178.1252 H 0 Z" /></clipPath><clipPath
       id="clipPath936"
       clipPathUnits="userSpaceOnUse"><path
         style="clip-rule:evenodd"
         id="path934"
         d="m 1910.6371,2100.335 h 336.2543 v 30.1123 h -336.2543 z" /></clipPath></defs><g
     transform="matrix(0.31999998,0,0,0.31999998,0,2.0765332e-5)"
     id="g10"><g
       id="g12"><g
         clip-path="url(#clipPath18)"
         id="g14"><g
           transform="scale(3.1250002)"
           id="g20"><path
             id="path22"
             style="fill:#ffffff;fill-opacity:1;fill-rule:nonzero;stroke:none"
             d="M 0,0 H 1328 V 704 H 0 Z" /><path
             id="path24"
             style="fill:#ffffff;fill-opacity:1;fill-rule:nonzero;stroke:none"
             d="M 0,0 H 1328 V 704 H 0 Z" /><path
             id="path26"
             style="fill:#ffffff;fill-opacity:1;fill-rule:nonzero;stroke:none"
             d="M 0,0 H 1328 V 697 H 0 Z" /></g></g></g><g
       id="g28"><g
         clip-path="url(#clipPath34)"
         id="g30"><g
           transform="matrix(2.5093608,0,0,2.5093608,972.47797,946.65637)"
           id="g36"><path
             id="path38"
             style="fill:none;stroke:#000229;stroke-width:1;stroke-linecap:butt;stroke-linejoin:miter;stroke-miterlimit:10;stroke-dasharray:none;stroke-opacity:1"
             d="m 166,0 v -239.5 h 38" /><path
             id="path40"
             style="fill:none;stroke:#000229;stroke-width:1;stroke-linecap:butt;stroke-linejoin:miter;stroke-miterlimit:10;stroke-dasharray:none;stroke-opacity:1"
             d="m 382.70313,-239.5 v -57 h 13" /><path
             id="path42"
             style="fill:none;stroke:#000229;stroke-width:1;stroke-linecap:butt;stroke-linejoin:miter;stroke-miterlimit:10;stroke-dasharray:none;stroke-opacity:1"
             d="m 382.70313,-239.5 v -19 h 13" /><path
             id="path44"
             style="fill:none;stroke:#000229;stroke-width:1;stroke-linecap:butt;stroke-linejoin:miter;stroke-miterlimit:10;stroke-dasharray:none;stroke-opacity:1"
             d="m 382.70313,-239.5 v 19 h 13" /><path
             id="path46"
             style="fill:none;stroke:#000229;stroke-width:1;stroke-linecap:butt;stroke-linejoin:miter;stroke-miterlimit:10;stroke-dasharray:none;stroke-opacity:1"
             d="m 369.70313,-239.5 h 13 v 57 h 13" /><path
             id="path48"
             style="fill:none;stroke:#000229;stroke-width:1;stroke-linecap:butt;stroke-linejoin:miter;stroke-miterlimit:10;stroke-dasharray:none;stroke-opacity:1"
             d="m 166,0 v -96.5 h 38" /><path
             id="path50"
             style="fill:none;stroke:#000229;stroke-width:1;stroke-linecap:butt;stroke-linejoin:miter;stroke-miterlimit:10;stroke-dasharray:none;stroke-opacity:1"
             d="m 382.70313,-96.5 v -19 h 13" /><path
             id="path52"
             style="fill:none;stroke:#000229;stroke-width:1;stroke-linecap:butt;stroke-linejoin:miter;stroke-miterlimit:10;stroke-dasharray:none;stroke-opacity:1"
             d="m 369.70313,-96.5 h 13 v 19 h 13" /><path
             id="path54"
             style="fill:none;stroke:#000229;stroke-width:1;stroke-linecap:butt;stroke-linejoin:miter;stroke-miterlimit:10;stroke-dasharray:none;stroke-opacity:1"
             d="m 166,0 v 50 h 38" /><path
             id="path56"
             style="fill:none;stroke:#000229;stroke-width:1;stroke-linecap:butt;stroke-linejoin:miter;stroke-miterlimit:10;stroke-dasharray:none;stroke-opacity:1"
             d="M 382.70313,50 V -7 h 13" /><path
             id="path58"
             style="fill:none;stroke:#000229;stroke-width:1;stroke-linecap:butt;stroke-linejoin:miter;stroke-miterlimit:10;stroke-dasharray:none;stroke-opacity:1"
             d="M 382.70313,50 V 31 h 13" /><path
             id="path60"
             style="fill:none;stroke:#000229;stroke-width:1;stroke-linecap:butt;stroke-linejoin:miter;stroke-miterlimit:10;stroke-dasharray:none;stroke-opacity:1"
             d="m 382.70313,50 v 19 h 13" /><path
             id="path62"
             style="fill:none;stroke:#000229;stroke-width:1;stroke-linecap:butt;stroke-linejoin:miter;stroke-miterlimit:10;stroke-dasharray:none;stroke-opacity:1"
             d="m 369.70313,50 h 13 v 57 h 13" /><path
             id="path64"
             style="fill:none;stroke:#000229;stroke-width:1;stroke-linecap:butt;stroke-linejoin:miter;stroke-miterlimit:10;stroke-dasharray:none;stroke-opacity:1"
             d="m 153,0 h 13 v 239.5 h 38" /><path
             id="path66"
             style="fill:none;stroke:#000229;stroke-width:1;stroke-linecap:butt;stroke-linejoin:miter;stroke-miterlimit:10;stroke-dasharray:none;stroke-opacity:1"
             d="M 382.70313,239.5 V 174 h 13" /><path
             id="path68"
             style="fill:none;stroke:#000229;stroke-width:1;stroke-linecap:butt;stroke-linejoin:miter;stroke-miterlimit:10;stroke-dasharray:none;stroke-opacity:1"
             d="M 382.70313,239.5 V 212 h 13" /><path
             id="path70"
             style="fill:none;stroke:#000229;stroke-width:1;stroke-linecap:butt;stroke-linejoin:miter;stroke-miterlimit:10;stroke-dasharray:none;stroke-opacity:1"
             d="m 369.70313,239.5 h 13 V 305 h 13" /><path
             id="path72"
             style="fill:none;stroke:#000229;stroke-width:1;stroke-linecap:butt;stroke-linejoin:miter;stroke-miterlimit:10;stroke-dasharray:none;stroke-opacity:1"
             d="m 699.25,305 v -55 h 13" /><path
             id="path74"
             style="fill:none;stroke:#000229;stroke-width:1;stroke-linecap:butt;stroke-linejoin:miter;stroke-miterlimit:10;stroke-dasharray:none;stroke-opacity:1"
             d="m 699.25,305 v -15 h 13" /><path
             id="path76"
             style="fill:none;stroke:#000229;stroke-width:1;stroke-linecap:butt;stroke-linejoin:miter;stroke-miterlimit:10;stroke-dasharray:none;stroke-opacity:1"
             d="m 699.25,305 v 25 h 13" /><path
             id="path78"
             style="fill:none;stroke:#000229;stroke-width:1;stroke-linecap:butt;stroke-linejoin:miter;stroke-miterlimit:10;stroke-dasharray:none;stroke-opacity:1"
             d="m 686.25,305 h 13 v 65 h 13" /><path
             id="path80"
             style="fill:none;stroke:#000229;stroke-width:1;stroke-linecap:butt;stroke-linejoin:miter;stroke-miterlimit:10;stroke-dasharray:none;stroke-opacity:1"
             d="M -152.5,-36 H 148 v 67.5 h -300.5 z m 300.5,5 h 5 v 67.5 h -300.5 v -5" /></g><g
           transform="matrix(3.1250002,0,0,3.1250002,966.20465,892.70514)"
           id="g82"><text
             id="text86"
             style="font-variant:normal;font-weight:500;font-size:22.47999954px;font-family:NeverMind;-inkscape-font-specification:NeverMind-CondensedMedium;writing-mode:lr-tb;fill:#000229;fill-opacity:1;fill-rule:nonzero;stroke:none"
             transform="translate(-97.345551,22.483871)"><tspan
               id="tspan84"
               y="0"
               x="0 18.561356 23.972794 37.21051 49.416443 59.328278 76.429749 88.635681 101.92828 108.07515 121.45557 129.18304 142.38783 150.52145 163.72624 175.65776 188.86255">Midaswap Protocol</tspan></text>
</g><g
           transform="matrix(2.5093608,0,0,2.5093608,1691.0374,345.66446)"
           id="g88"><path
             id="path90"
             style="fill:none;stroke:#000229;stroke-width:1;stroke-linecap:butt;stroke-linejoin:miter;stroke-miterlimit:10;stroke-dasharray:none;stroke-opacity:1"
             d="M -82.851563,-22.5 H 74.251564 l 9.099999,9.1 V 23 H -82.851563 Z m 157.103127,0 v 9.1 h 9.099999" /></g><g
           transform="matrix(3.1250002,0,0,3.1250002,1529.5562,315.55212)"
           id="g92"><text
             id="text96"
             style="font-variant:normal;font-weight:500;font-size:14.44999981px;font-family:NeverMind;-inkscape-font-specification:NeverMind-CondensedMedium;writing-mode:lr-tb;fill:#000229;fill-opacity:1;fill-rule:nonzero;stroke:none"
             transform="translate(0,14.453917)"><tspan
               id="tspan94"
               y="0"
               x="0 11.931122 15.409561 23.918686 31.764572 38.354553 42.30571 50.984177 59.472137 67.769592 72.997833 80.998947">Midas Router</tspan></text>
</g><g
           transform="matrix(0.00250936,0,0,0.00250936,1932.8182,345.66446)"
           id="g98"><path
             id="path100"
             style="fill:#ffffff;fill-opacity:1;fill-rule:nonzero;stroke:none"
             d="m 12,6 c 0,4 -2,6 -6,6 C 2,12 0,10 0,6 0,2 2,0 6,0 c 4,0 6,2 6,6 z" /><path
             id="path102"
             style="fill:none;stroke:#000229;stroke-width:1;stroke-linecap:butt;stroke-linejoin:miter;stroke-miterlimit:10;stroke-dasharray:none;stroke-opacity:1"
             d="m 12,6 c 0,4 -2,6 -6,6 C 2,12 0,10 0,6 0,2 2,0 6,0 c 4,0 6,2 6,6 z" /><path
             id="path104"
             style="fill:none;stroke:#000229;stroke-width:1;stroke-linecap:butt;stroke-linejoin:miter;stroke-miterlimit:10;stroke-dasharray:none;stroke-opacity:1"
             d="m 2,6 h 8" /></g><g
           transform="matrix(2.5093608,0,0,2.5093608,2329.9834,164.99048)"
           id="g106"><path
             id="path108"
             style="fill:none;stroke:#000229;stroke-width:1;stroke-linecap:butt;stroke-linejoin:miter;stroke-miterlimit:10;stroke-dasharray:none;stroke-opacity:1"
             d="M -145.27344,15 H 145.27344" /></g><g
           transform="matrix(3.1250002,0,0,3.1250002,1983.0055,141.15155)"
           id="g110"><text
             id="text114"
             style="font-variant:normal;font-weight:500;font-size:11.23999977px;font-family:NeverMind;-inkscape-font-specification:NeverMind-CondensedMedium;writing-mode:lr-tb;fill:#000229;fill-opacity:1;fill-rule:nonzero;stroke:none"
             transform="translate(0,11.241936)"><tspan
               id="tspan112"
               y="0"
               x="0 6.102951 12.721802 19.340652 22.414078 27.616959 30.690384 34.554123 40.777817 50.376801 56.787094 62.93396 69.157654 72.231079 75.271576 77.977295 84.623596 91.077805 93.783524 100.40237 103.10809 107.00476">add / remove liquidity</tspan></text>
</g><g
           transform="matrix(2.5093608,0,0,2.5093608,2329.9834,260.34616)"
           id="g116"><path
             id="path118"
             style="fill:none;stroke:#000229;stroke-width:1;stroke-linecap:butt;stroke-linejoin:miter;stroke-miterlimit:10;stroke-dasharray:none;stroke-opacity:1"
             d="M -145.27344,15 H 145.27344" /></g><g
           transform="matrix(3.1250002,0,0,3.1250002,1983.0055,236.50725)"
           id="g120"><text
             id="text124"
             style="font-variant:normal;font-weight:500;font-size:11.23999977px;font-family:NeverMind;-inkscape-font-specification:NeverMind-CondensedMedium;writing-mode:lr-tb;fill:#000229;fill-opacity:1;fill-rule:nonzero;stroke:none"
             transform="translate(0,11.241936)"><tspan
               id="tspan122"
               y="0"
               x="0 6.6188507 12.902924 19.159546 22.232971 27.435852 30.509277 35.635315 41.859009 44.77327 47.687531 50.760956 58.49942 64.382843 70.156509">buy / sell NFTs</tspan></text>
</g><g
           transform="matrix(2.5093608,0,0,2.5093608,2329.9834,355.7019)"
           id="g126"><path
             id="path128"
             style="fill:none;stroke:#000229;stroke-width:1;stroke-linecap:butt;stroke-linejoin:miter;stroke-miterlimit:10;stroke-dasharray:none;stroke-opacity:1"
             d="M -145.27344,15 H 145.27344" /></g><g
           transform="matrix(3.1250002,0,0,3.1250002,1983.0055,331.86298)"
           id="g130"><text
             id="text134"
             style="font-variant:normal;font-weight:500;font-size:11.23999977px;font-family:NeverMind;-inkscape-font-specification:NeverMind-CondensedMedium;writing-mode:lr-tb;fill:#000229;fill-opacity:1;fill-rule:nonzero;stroke:none"
             transform="translate(0,11.241936)"><tspan
               id="tspan132"
               y="0"
               x="0 6.6023865 13.248688 19.472382 25.789383 28.862808 33.988846 36.694565 43.011566 49.690796 52.577621 58.801315 61.874741 67.077621 70.151047 79.750031 86.204239 89.1185 93.185303 95.891022 102.53732 105.42415 111.64784 114.72127 117.76176 120.46748 130.06647 132.77219 136.83899 139.91241 146.5148 150.37854 156.99739 163.22108 167.26045">open single / multiple limit orders</tspan></text>
</g><g
           transform="matrix(2.5093608,0,0,2.5093608,2329.9834,451.05762)"
           id="g136"><path
             id="path138"
             style="fill:none;stroke:#000229;stroke-width:1;stroke-linecap:butt;stroke-linejoin:miter;stroke-miterlimit:10;stroke-dasharray:none;stroke-opacity:1"
             d="M -145.27344,15 H 145.27344" /></g><g
           transform="matrix(3.1250002,0,0,3.1250002,1983.0055,427.21866)"
           id="g140"><text
             id="text144"
             style="font-variant:normal;font-weight:500;font-size:11.23999977px;font-family:NeverMind;-inkscape-font-specification:NeverMind-CondensedMedium;writing-mode:lr-tb;fill:#000229;fill-opacity:1;fill-rule:nonzero;stroke:none"
             transform="translate(0,11.241936)"><tspan
               id="tspan142"
               y="0"
               x="0 5.965744 12.56813 15.482391 18.369217 24.592911 30.558655 34.625458 37.698883 41.529694 47.753387 53.977081 59.103119 62.176544 66.413483 70.277222 76.879608 86.478592 89.552017 94.678055 97.383774 103.70078 110.38 113.26683 119.49052 122.56395 127.76683 130.84026 140.43924 146.89345 149.80771 153.87451 156.58023 163.22653 166.11336 172.33705 175.41048 182.05678 188.65916 193.7852 196.49092 200.55772 203.26344 209.86583 216.18283">collect fees from single / multiple positions</tspan></text>
</g><g
           transform="matrix(2.5093608,0,0,2.5093608,1691.0374,704.50305)"
           id="g146"><path
             id="path148"
             style="fill:none;stroke:#000229;stroke-width:1;stroke-linecap:butt;stroke-linejoin:miter;stroke-miterlimit:10;stroke-dasharray:none;stroke-opacity:1"
             d="M -82.851563,-22.5 H 74.251564 l 9.099999,9.1 V 23 H -82.851563 Z m 157.103127,0 v 9.1 h 9.099999" /></g><g
           transform="matrix(3.1250002,0,0,3.1250002,1529.5562,674.39069)"
           id="g150"><text
             id="text154"
             style="font-variant:normal;font-weight:500;font-size:14.44999981px;font-family:NeverMind;-inkscape-font-specification:NeverMind-CondensedMedium;writing-mode:lr-tb;fill:#000229;fill-opacity:1;fill-rule:nonzero;stroke:none"
             transform="translate(0,14.453917)"><tspan
               id="tspan152"
               y="0"
               x="0 11.931122 15.409561 23.918686 31.764572 38.354553 42.30571 49.812927 58.413773 62.364929 69.653427 78.063782 85.373444 93.374557">Midas LP Token</tspan></text>
</g><g
           transform="matrix(0.00250936,0,0,0.00250936,1932.8182,704.50305)"
           id="g156"><path
             id="path158"
             style="fill:#ffffff;fill-opacity:1;fill-rule:nonzero;stroke:none"
             d="m 12,6 c 0,4 -2,6 -6,6 C 2,12 0,10 0,6 0,2 2,0 6,0 c 4,0 6,2 6,6 z" /><path
             id="path160"
             style="fill:none;stroke:#000229;stroke-width:1;stroke-linecap:butt;stroke-linejoin:miter;stroke-miterlimit:10;stroke-dasharray:none;stroke-opacity:1"
             d="m 12,6 c 0,4 -2,6 -6,6 C 2,12 0,10 0,6 0,2 2,0 6,0 c 4,0 6,2 6,6 z" /><path
             id="path162"
             style="fill:none;stroke:#000229;stroke-width:1;stroke-linecap:butt;stroke-linejoin:miter;stroke-miterlimit:10;stroke-dasharray:none;stroke-opacity:1"
             d="m 2,6 h 8" /></g><g
           transform="matrix(2.5093608,0,0,2.5093608,2329.9834,619.18475)"
           id="g164"><path
             id="path166"
             style="fill:none;stroke:#000229;stroke-width:1;stroke-linecap:butt;stroke-linejoin:miter;stroke-miterlimit:10;stroke-dasharray:none;stroke-opacity:1"
             d="M -145.27344,15 H 145.27344" /></g><g
           transform="matrix(3.1250002,0,0,3.1250002,1983.0055,595.34583)"
           id="g168"><text
             id="text172"
             style="font-variant:normal;font-weight:500;font-size:11.23999977px;font-family:NeverMind;-inkscape-font-specification:NeverMind-CondensedMedium;writing-mode:lr-tb;fill:#000229;fill-opacity:1;fill-rule:nonzero;stroke:none"
             transform="translate(0,11.241936)"><tspan
               id="tspan170"
               y="0"
               x="0 6.6792297 12.902924 16.969727 20.043152 25.882675 32.572876 35.646301 39.51004 45.733734 50.859772 57.083466 61.183197 67.330063 73.553757">get LP reserves</tspan></text>
</g><g
           transform="matrix(2.5093608,0,0,2.5093608,2329.9834,714.54047)"
           id="g174"><path
             id="path176"
             style="fill:none;stroke:#000229;stroke-width:1;stroke-linecap:butt;stroke-linejoin:miter;stroke-miterlimit:10;stroke-dasharray:none;stroke-opacity:1"
             d="M -145.27344,15 H 145.27344" /></g><g
           transform="matrix(3.1250002,0,0,3.1250002,1983.0055,690.70154)"
           id="g178"><text
             id="text182"
             style="font-variant:normal;font-weight:500;font-size:11.23999977px;font-family:NeverMind;-inkscape-font-specification:NeverMind-CondensedMedium;writing-mode:lr-tb;fill:#000229;fill-opacity:1;fill-rule:nonzero;stroke:none"
             transform="translate(0,11.241936)"><tspan
               id="tspan180"
               y="0"
               x="0 9.5989838 12.304703 18.621704">mint</tspan></text>
</g><g
           transform="matrix(2.5093608,0,0,2.5093608,1691.0374,1072.1244)"
           id="g184"><path
             id="path186"
             style="fill:none;stroke:#000229;stroke-width:1;stroke-linecap:butt;stroke-linejoin:miter;stroke-miterlimit:10;stroke-dasharray:none;stroke-opacity:1"
             d="M -82.851563,-22.5 H 74.251564 l 9.099999,9.1 V 23 H -82.851563 Z m 157.103127,0 v 9.1 h 9.099999" /></g><g
           transform="matrix(3.1250002,0,0,3.1250002,1529.5562,1042.0121)"
           id="g188"><text
             id="text192"
             style="font-variant:normal;font-weight:500;font-size:14.44999981px;font-family:NeverMind;-inkscape-font-specification:NeverMind-CondensedMedium;writing-mode:lr-tb;fill:#000229;fill-opacity:1;fill-rule:nonzero;stroke:none"
             transform="translate(0,14.453917)"><tspan
               id="tspan190"
               y="0"
               x="0 11.931122 15.409561 23.918686 31.764572 38.354553 42.30571 50.546722 58.392609 61.871048">Midas Pair</tspan></text>
</g><g
           transform="matrix(0.00250936,0,0,0.00250936,1932.8182,1072.1244)"
           id="g194"><path
             id="path196"
             style="fill:#ffffff;fill-opacity:1;fill-rule:nonzero;stroke:none"
             d="m 12,6 c 0,4 -2,6 -6,6 C 2,12 0,10 0,6 0,2 2,0 6,0 c 4,0 6,2 6,6 z" /><path
             id="path198"
             style="fill:none;stroke:#000229;stroke-width:1;stroke-linecap:butt;stroke-linejoin:miter;stroke-miterlimit:10;stroke-dasharray:none;stroke-opacity:1"
             d="m 12,6 c 0,4 -2,6 -6,6 C 2,12 0,10 0,6 0,2 2,0 6,0 c 4,0 6,2 6,6 z" /><path
             id="path200"
             style="fill:none;stroke:#000229;stroke-width:1;stroke-linecap:butt;stroke-linejoin:miter;stroke-miterlimit:10;stroke-dasharray:none;stroke-opacity:1"
             d="m 2,6 h 8" /></g><g
           transform="matrix(2.5093608,0,0,2.5093608,2329.9834,891.45038)"
           id="g202"><path
             id="path204"
             style="fill:none;stroke:#000229;stroke-width:1;stroke-linecap:butt;stroke-linejoin:miter;stroke-miterlimit:10;stroke-dasharray:none;stroke-opacity:1"
             d="M -145.27344,15 H 145.27344" /></g><g
           transform="matrix(3.1250002,0,0,3.1250002,1983.0055,867.61145)"
           id="g206"><text
             id="text210"
             style="font-variant:normal;font-weight:500;font-size:11.23999977px;font-family:NeverMind;-inkscape-font-specification:NeverMind-CondensedMedium;writing-mode:lr-tb;fill:#000229;fill-opacity:1;fill-rule:nonzero;stroke:none"
             transform="translate(0,11.241936)"><tspan
               id="tspan208"
               y="0"
               x="0 9.5989838 12.304703 18.621704 22.688507 25.761932 30.964813 34.038239 40.657089 47.111298 51.150665">mint / burn</tspan></text>
</g><g
           transform="matrix(2.5093608,0,0,2.5093608,2329.9834,986.80609)"
           id="g212"><path
             id="path214"
             style="fill:none;stroke:#000229;stroke-width:1;stroke-linecap:butt;stroke-linejoin:miter;stroke-miterlimit:10;stroke-dasharray:none;stroke-opacity:1"
             d="M -145.27344,15 H 145.27344" /></g><g
           transform="matrix(3.1250002,0,0,3.1250002,1983.0055,962.96716)"
           id="g216"><text
             id="text220"
             style="font-variant:normal;font-weight:500;font-size:11.23999977px;font-family:NeverMind;-inkscape-font-specification:NeverMind-CondensedMedium;writing-mode:lr-tb;fill:#000229;fill-opacity:1;fill-rule:nonzero;stroke:none"
             transform="translate(0,11.241936)"><tspan
               id="tspan218"
               y="0"
               x="0 6.6188507 12.902924 19.159546 22.232971 27.435852 30.509277 35.635315 41.859009 44.77327 47.687531 50.760956 58.49942 64.382843 70.156509">buy / sell NFTs</tspan></text>
</g><g
           transform="matrix(2.5093608,0,0,2.5093608,2329.9834,1082.1617)"
           id="g222"><path
             id="path224"
             style="fill:none;stroke:#000229;stroke-width:1;stroke-linecap:butt;stroke-linejoin:miter;stroke-miterlimit:10;stroke-dasharray:none;stroke-opacity:1"
             d="M -145.27344,15 H 145.27344" /></g><g
           transform="matrix(3.1250002,0,0,3.1250002,1983.0055,1058.3229)"
           id="g226"><text
             id="text230"
             style="font-variant:normal;font-weight:500;font-size:11.23999977px;font-family:NeverMind;-inkscape-font-specification:NeverMind-CondensedMedium;writing-mode:lr-tb;fill:#000229;fill-opacity:1;fill-rule:nonzero;stroke:none"
             transform="translate(0,11.241936)"><tspan
               id="tspan228"
               y="0"
               x="0 5.965744 12.56813 15.482391 18.369217 24.592911 30.558655 34.625458 37.698883 41.529694 47.753387">collect fee</tspan></text>
</g><g
           transform="matrix(2.5093608,0,0,2.5093608,2329.9834,1177.5175)"
           id="g232"><path
             id="path234"
             style="fill:none;stroke:#000229;stroke-width:1;stroke-linecap:butt;stroke-linejoin:miter;stroke-miterlimit:10;stroke-dasharray:none;stroke-opacity:1"
             d="M -145.27344,15 H 145.27344" /></g><g
           transform="matrix(3.1250002,0,0,3.1250002,1983.0055,1153.6786)"
           id="g236"><text
             id="text240"
             style="font-variant:normal;font-weight:500;font-size:11.23999977px;font-family:NeverMind;-inkscape-font-specification:NeverMind-CondensedMedium;writing-mode:lr-tb;fill:#000229;fill-opacity:1;fill-rule:nonzero;stroke:none"
             transform="translate(0,11.241936)"><tspan
               id="tspan238"
               y="0"
               x="0 4.3631744 7.2774353 13.380386 18.506424 24.823425 27.896851 30.783676 37.386063 43.489014 49.806015 52.87944 60.617905 66.501328 72.274994">flash loan NFTs</tspan></text>
</g><g
           transform="matrix(2.5093608,0,0,2.5093608,1691.0374,1547.6483)"
           id="g242"><path
             id="path244"
             style="fill:none;stroke:#000229;stroke-width:1;stroke-linecap:butt;stroke-linejoin:miter;stroke-miterlimit:10;stroke-dasharray:none;stroke-opacity:1"
             d="M -82.851563,-22.5 H 74.251564 l 9.099999,9.1 V 23 H -82.851563 Z m 157.103127,0 v 9.1 h 9.099999" /></g><g
           transform="matrix(3.1250002,0,0,3.1250002,1529.5562,1517.5359)"
           id="g246"><text
             id="text250"
             style="font-variant:normal;font-weight:500;font-size:14.44999981px;font-family:NeverMind;-inkscape-font-specification:NeverMind-CondensedMedium;writing-mode:lr-tb;fill:#000229;fill-opacity:1;fill-rule:nonzero;stroke:none"
             transform="translate(0,14.453917)"><tspan
               id="tspan248"
               y="0"
               x="0 11.931122 15.409561 23.918686 31.764572 38.354553 42.30571 49.777649 57.623535 65.29303 70.521271 79.009232 84.2798">Midas Factory</tspan></text>
</g><g
           transform="matrix(0.00250936,0,0,0.00250936,1932.8182,1547.6483)"
           id="g252"><path
             id="path254"
             style="fill:#ffffff;fill-opacity:1;fill-rule:nonzero;stroke:none"
             d="m 12,6 c 0,4 -2,6 -6,6 C 2,12 0,10 0,6 0,2 2,0 6,0 c 4,0 6,2 6,6 z" /><path
             id="path256"
             style="fill:none;stroke:#000229;stroke-width:1;stroke-linecap:butt;stroke-linejoin:miter;stroke-miterlimit:10;stroke-dasharray:none;stroke-opacity:1"
             d="m 12,6 c 0,4 -2,6 -6,6 C 2,12 0,10 0,6 0,2 2,0 6,0 c 4,0 6,2 6,6 z" /><path
             id="path258"
             style="fill:none;stroke:#000229;stroke-width:1;stroke-linecap:butt;stroke-linejoin:miter;stroke-miterlimit:10;stroke-dasharray:none;stroke-opacity:1"
             d="m 2,6 h 8" /></g><g
           transform="matrix(2.5093608,0,0,2.5093608,2329.9834,1345.6448)"
           id="g260"><path
             id="path262"
             style="fill:none;stroke:#000229;stroke-width:1;stroke-linecap:butt;stroke-linejoin:miter;stroke-miterlimit:10;stroke-dasharray:none;stroke-opacity:1"
             d="M -145.27344,15 H 145.27344" /></g><g
           transform="matrix(3.1250002,0,0,3.1250002,1983.0055,1321.8058)"
           id="g264"><text
             id="text268"
             style="font-variant:normal;font-weight:500;font-size:11.23999977px;font-family:NeverMind;-inkscape-font-specification:NeverMind-CondensedMedium;writing-mode:lr-tb;fill:#000229;fill-opacity:1;fill-rule:nonzero;stroke:none"
             transform="translate(0,11.241936)"><tspan
               id="tspan266"
               y="0"
               x="0 5.965744 9.829483 16.053177 22.156128 26.222931 32.446625 35.52005 42.166351 48.269302 50.975021">create pair</tspan></text>
</g><g
           transform="matrix(2.5093608,0,0,2.5093608,2329.9834,1441.0005)"
           id="g270"><path
             id="path272"
             style="fill:none;stroke:#000229;stroke-width:1;stroke-linecap:butt;stroke-linejoin:miter;stroke-miterlimit:10;stroke-dasharray:none;stroke-opacity:1"
             d="M -145.27344,15 H 145.27344" /></g><g
           transform="matrix(3.1250002,0,0,3.1250002,1983.0055,1417.1615)"
           id="g274"><text
             id="text278"
             style="font-variant:normal;font-weight:500;font-size:11.23999977px;font-family:NeverMind;-inkscape-font-specification:NeverMind-CondensedMedium;writing-mode:lr-tb;fill:#000229;fill-opacity:1;fill-rule:nonzero;stroke:none"
             transform="translate(0,11.241936)"><tspan
               id="tspan276"
               y="0"
               x="0 4.3631744 7.2774353 13.380386 18.506424 24.823425 27.896851 30.783676 37.386063 43.489014">flash loan</tspan></text>
</g><g
           transform="matrix(2.5093608,0,0,2.5093608,2329.9834,1674.3709)"
           id="g280"><path
             id="path282"
             style="fill:none;stroke:#000229;stroke-width:1;stroke-linecap:butt;stroke-linejoin:miter;stroke-miterlimit:10;stroke-dasharray:none;stroke-opacity:1"
             d="M -145.27344,15 H 145.27344" /></g><g
           transform="matrix(3.1250002,0,0,3.1250002,1983.0055,1650.5321)"
           id="g284"><text
             id="text288"
             style="font-variant:normal;font-weight:500;font-size:11.23999977px;font-family:NeverMind;-inkscape-font-specification:NeverMind-CondensedMedium;writing-mode:lr-tb;fill:#000229;fill-opacity:1;fill-rule:nonzero;stroke:none"
             transform="translate(0,11.241936)"><tspan
               id="tspan286"
               y="0"
               x="0 6.102951 12.721802 22.320786 25.026505 31.343506 34.416931 39.542969 45.766663 49.833466 53.900269 56.605988 62.922989 69.602219">admin settings</tspan></text>
</g><g
           transform="matrix(0.00250936,0,0,0.00250936,2727.1487,1712.0115)"
           id="g290"><path
             id="path292"
             style="fill:#ffffff;fill-opacity:1;fill-rule:nonzero;stroke:none"
             d="m 12,6 c 0,4 -2,6 -6,6 C 2,12 0,10 0,6 0,2 2,0 6,0 c 4,0 6,2 6,6 z" /><path
             id="path294"
             style="fill:none;stroke:#000229;stroke-width:1;stroke-linecap:butt;stroke-linejoin:miter;stroke-miterlimit:10;stroke-dasharray:none;stroke-opacity:1"
             d="m 12,6 c 0,4 -2,6 -6,6 C 2,12 0,10 0,6 0,2 2,0 6,0 c 4,0 6,2 6,6 z" /><path
             id="path296"
             style="fill:none;stroke:#000229;stroke-width:1;stroke-linecap:butt;stroke-linejoin:miter;stroke-miterlimit:10;stroke-dasharray:none;stroke-opacity:1"
             d="m 2,6 h 8" /></g><g
           transform="matrix(2.5093608,0,0,2.5093608,2899.7258,1536.3562)"
           id="g298"><path
             id="path300"
             style="fill:none;stroke:#000229;stroke-width:1;stroke-linecap:butt;stroke-linejoin:miter;stroke-miterlimit:10;stroke-dasharray:none;stroke-opacity:1"
             d="M -55.773438,15 H 55.773438" /></g><g
           transform="matrix(3.1250002,0,0,3.1250002,2777.3357,1512.5172)"
           id="g302"><text
             id="text306"
             style="font-variant:normal;font-weight:500;font-size:11.23999977px;font-family:NeverMind;-inkscape-font-specification:NeverMind-CondensedMedium;writing-mode:lr-tb;fill:#000229;fill-opacity:1;fill-rule:nonzero;stroke:none"
             transform="translate(0,11.241936)"><tspan
               id="tspan304"
               y="0"
               x="0 5.1260376 11.349731 15.416534 18.48996 24.900253 33.494888 39.81189 46.035583">set owner</tspan></text>
</g><g
           transform="matrix(2.5093608,0,0,2.5093608,2899.7258,1636.7305)"
           id="g308"><path
             id="path310"
             style="fill:none;stroke:#000229;stroke-width:1;stroke-linecap:butt;stroke-linejoin:miter;stroke-miterlimit:10;stroke-dasharray:none;stroke-opacity:1"
             d="M -55.773438,15 H 55.773438" /></g><g
           transform="matrix(3.1250002,0,0,3.1250002,2777.3357,1612.8917)"
           id="g312"><text
             id="text316"
             style="font-variant:normal;font-weight:500;font-size:11.23999977px;font-family:NeverMind;-inkscape-font-specification:NeverMind-CondensedMedium;writing-mode:lr-tb;fill:#000229;fill-opacity:1;fill-rule:nonzero;stroke:none"
             transform="translate(0,11.241936)"><tspan
               id="tspan314"
               y="0"
               x="0 5.1260376 11.349731 15.416534 18.48996 22.32077 28.544464 34.768158 37.841583 41.771179 47.87413 51.940933">set fee rate</tspan></text>
</g><g
           transform="matrix(2.5093608,0,0,2.5093608,2899.7258,1737.105)"
           id="g318"><path
             id="path320"
             style="fill:none;stroke:#000229;stroke-width:1;stroke-linecap:butt;stroke-linejoin:miter;stroke-miterlimit:10;stroke-dasharray:none;stroke-opacity:1"
             d="M -55.773438,15 H 55.773438" /></g><g
           transform="matrix(3.1250002,0,0,3.1250002,2777.3357,1713.2661)"
           id="g322"><text
             id="text326"
             style="font-variant:normal;font-weight:500;font-size:11.23999977px;font-family:NeverMind;-inkscape-font-specification:NeverMind-CondensedMedium;writing-mode:lr-tb;fill:#000229;fill-opacity:1;fill-rule:nonzero;stroke:none"
             transform="translate(0,11.241936)"><tspan
               id="tspan324"
               y="0"
               x="0 5.1260376 11.349731 15.416534 18.48996 22.353699 28.763992 34.976715 41.079666 43.993927 47.890594 54.147217 57.220642 61.150238 67.253189 71.319992">set royalty rate</tspan></text>
</g><g
           transform="matrix(2.5093608,0,0,2.5093608,2899.7258,1837.4794)"
           id="g328"><path
             id="path330"
             style="fill:none;stroke:#000229;stroke-width:1;stroke-linecap:butt;stroke-linejoin:miter;stroke-miterlimit:10;stroke-dasharray:none;stroke-opacity:1"
             d="M -55.773438,15 H 55.773438" /></g><g
           transform="matrix(3.1250002,0,0,3.1250002,2777.3357,1813.6405)"
           id="g332"><text
             id="text336"
             style="font-variant:normal;font-weight:500;font-size:11.23999977px;font-family:NeverMind;-inkscape-font-specification:NeverMind-CondensedMedium;writing-mode:lr-tb;fill:#000229;fill-opacity:1;fill-rule:nonzero;stroke:none"
             transform="translate(12.293701,11.241936)"><tspan
               id="tspan334"
               y="0"
               x="0 3.260025 6.52005">...</tspan></text>
</g><g
           transform="matrix(2.5093608,0,0,2.5093608,972.47797,946.65637)"
           id="g338"><path
             id="path340"
             style="fill:#000229;fill-opacity:1;fill-rule:nonzero;stroke:none"
             d="m 694.74988,91.730392 h 9 v 1 h -9 z m 12,0 h 9 v 1 h -9 z m 12,0 h 9 v 1 h -9 z m 12,0 h 9 v 1 h -9 z m 12,0 h 9 v 1 h -9 z M 752.75,94.73027 v 9 h -1 v -9 z m 0,12 v 9 h -1 v -9 z m 0,12 v 9 h -1 v -9 z m 0,12 v 9 h -1 v -9 z m 0,12 v 9 h -1 v -9 z m 0,12 v 9 h -1 v -9 z m 0,12 v 9 h -1 v -9 z m 0,12 v 9 h -1 v -9 z m 0,12 v 7.00012 h -2.99988 v -1 H 752.25 v 0.5 h -0.5 v -6.50012 z m -5.99988,7.00012 h -9 v -1 h 9 z m -12,0 h -9 v -1 h 9 z m -12,0 h -9 v -1 h 9 z m -12,0 h -9 v -1 h 9 z m -12,0 h -4.00024 v -1 h 4.00024 z" /></g></g></g><g
       id="g342"><g
         clip-path="url(#clipPath348)"
         id="g344"><g
           transform="matrix(2.5093608,0,0,2.5093608,2700.7998,1168.0582)"
           id="g350"><path
             id="path352"
             style="fill:#000229;fill-opacity:1;fill-rule:nonzero;stroke:none"
             d="M 4,2 C 4.2652164,2 4.5203385,2.0507469 4.7653666,2.152241 5.0103946,2.2537348 5.2266765,2.3982499 5.4142132,2.5857863 5.6017489,2.7733226 5.746264,2.9896047 5.8477583,3.2346327 5.9492521,3.4796607 5.9999995,3.7347832 6,4 5.9999995,4.2652164 5.9492521,4.5203385 5.8477583,4.7653666 5.746264,5.0103946 5.6017489,5.2266765 5.4142132,5.4142132 5.2266765,5.6017489 5.0103946,5.746264 4.7653666,5.8477583 4.5203385,5.9492521 4.2652164,5.9999995 4,6 3.7347832,5.9999995 3.4796607,5.9492521 3.2346327,5.8477583 2.9896047,5.746264 2.7733226,5.6017489 2.5857863,5.4142132 2.3982499,5.2266765 2.2537346,5.0103946 2.1522408,4.7653666 2.0507467,4.5203385 1.9999999,4.2652164 2,4 1.9999999,3.7347832 2.0507467,3.4796607 2.1522408,3.2346327 2.2537346,2.9896047 2.3982499,2.7733226 2.5857863,2.5857863 2.7733226,2.3982499 2.9896047,2.2537348 3.2346327,2.1522408 3.4796607,2.0507469 3.7347832,2 4,2 Z" /></g></g></g><g
       id="g354"><g
         clip-path="url(#clipPath360)"
         id="g356"><g
           clip-path="url(#clipPath366)"
           id="g362"><g
             clip-path="url(#clipPath372)"
             id="g368"><g
               clip-path="url(#clipPath378)"
               id="g374"><g
                 transform="matrix(-2.5093608,0,0,-2.5093608,2715.856,1446.5973)"
                 id="g380"><path
                   id="path382"
                   style="fill:#000229;fill-opacity:1;fill-rule:nonzero;stroke:none"
                   d="M 0,0 4,2 0,4 Z" /></g></g></g></g></g></g><g
       id="g384"><g
         clip-path="url(#clipPath390)"
         id="g386"><g
           transform="matrix(2.5093608,0,0,2.5093608,972.47797,946.65637)"
           id="g392"><path
             id="path394"
             style="fill:#000229;fill-opacity:1;fill-rule:nonzero;stroke:none"
             d="m 694.75,-198.98964 h 9 v 1 h -9 z m 12,0 h 9 v 1 h -9 z m 12,0 h 9 v 1 h -9 z m 12,0 h 9 v 1 h -9 z m 12,0 h 9 v 1 h -9 z m 12,0 h 9 v 1 h -9 z m 12,0 h 9 v 1 h -9 z m 12,0 h 9 v 1 h -9 z m 12,0 h 9 v 1 h -9 z m 12,0 h 9 v 1 h -9 z m 12,0 h 9 v 1 h -9 z m 12,0 h 9 v 1 h -9 z m 12,0 h 9 v 1 h -9 z m 12,0 h 9 v 1 h -9 z m 12,0 h 9 v 1 h -9 z m 12,0 h 9 v 1 h -9 z m 12,0 h 9 v 1 h -9 z m 12,0 h 9 v 1 h -9 z m 12,0 h 9 v 1 h -9 z m 12,0 h 9 v 1 h -9 z m 12,0 h 9 v 1 h -9 z m 12,0 h 9 v 1 h -9 z m 12,0 h 9 v 1 h -9 z m 12,0 h 9 v 1 h -9 z m 12,0 h 9 v 1 h -9 z m 12,0 h 9 v 1 h -9 z m 12,0 h 9 v 1 h -9 z m 12,0 h 6.0352 v 3.96484 h -1 v -3.46484 h 0.5 v 0.5 h -5.5352 z m 6.0352,6.96484 v 9 h -1 v -9 z m 0,12 v 9 h -1 v -9 z m 0,12 v 9 h -1 v -9 z m 0,12 v 9 h -1 v -9 z m 0,12 v 9 h -1 v -9 z m 0,12 v 9.00001 h -1 v -9.00001 z m 0,12 v 9.00001 h -1 v -9.00001 z m 0,12 v 9.000012 h -1 v -9.000012 z m 0,12.000004 v 9.000008 h -1 v -9.000008 z m 0,12.000008 v 9 h -1 v -9 z m 0,12 v 8.999992 h -1 v -8.999992 z m 0,12.000008 v 9 h -1 v -9 z m 0,11.999984 v 9 h -1 v -9 z m 0,12.000016 v 9 h -1 v -9 z m 0,11.999984 v 9.000016 h -1 v -9.000016 z m 0,12.000016 v 8.9999997 h -1 V -12.02478 Z m 0,11.99998447 V 8.9752197 h -1 v -9.00001523 z m 0,12.00001553 v 9 h -1 v -9 z m 0,11.999984 v 9.000016 h -1 v -9.000016 z m 0,12.000016 v 9 h -1 v -9 z m 0,11.999984 v 8.039937 h -1.9601 v -1 h 1.4601 v 0.5 h -0.5 v -7.539937 z m -4.9601,8.039937 h -9 v -1 h 9 z m -12,0 h -9.00003 v -1 h 9.00003 z m -12.00003,0 h -9 v -1 h 9 z m -12,0 h -9 v -1 h 9 z m -12,0 h -9 v -1 h 9 z m -12,0 h -9 v -1 h 9 z m -12,0 h -9 v -1 h 9 z m -12,0 h -9 v -1 h 9 z m -12,0 h -9 v -1 h 9 z m -12,0 h -9 v -1 h 9 z m -12,0 h -9 v -1 h 9 z m -12,0 h -9 v -1 h 9 z m -12,0 h -9 v -1 h 9 z m -12,0 h -9 v -1 h 9 z m -12,0 h -9 v -1 h 9 z m -12,0 h -9 v -1 h 9 z m -12,0 h -9 v -1 h 9 z m -12,0 h -9 v -1 h 9 z m -12,0 h -9 v -1 h 9 z m -12,0 h -9 v -1 h 9 z m -12,0 h -9 v -1 h 9 z m -12,0 h -9 v -1 h 9 z m -12,0 h -9 v -1 h 9 z m -12,0 h -9 v -1 h 9 z m -12,0 h -9 v -1 h 9 z m -12,0 h -9 v -1 h 9 z m -12,0 h -9 v -1 h 9 z m -12,0 H 694.75 v -1 h 1.07507 z" /></g></g></g><g
       id="g396"><g
         clip-path="url(#clipPath402)"
         id="g398"><g
           transform="matrix(2.5093608,0,0,2.5093608,2700.8003,438.5368)"
           id="g404"><path
             id="path406"
             style="fill:#000229;fill-opacity:1;fill-rule:nonzero;stroke:none"
             d="M 4,2 C 4.2652164,2 4.5203385,2.0507469 4.7653666,2.152241 5.0103946,2.2537348 5.2266765,2.3982499 5.4142132,2.5857863 5.6017489,2.7733226 5.746264,2.9896047 5.8477583,3.2346327 5.9492521,3.4796607 5.9999995,3.7347832 6,4 5.9999995,4.2652164 5.9492521,4.5203385 5.8477583,4.7653666 5.746264,5.0103946 5.6017489,5.2266765 5.4142132,5.4142132 5.2266765,5.6017489 5.0103946,5.746264 4.7653666,5.8477583 4.5203385,5.9492521 4.2652164,5.9999995 4,6 3.7347832,5.9999995 3.4796607,5.9492521 3.2346327,5.8477583 2.9896047,5.746264 2.7733226,5.6017489 2.5857863,5.4142132 2.3982499,5.2266765 2.2537346,5.0103946 2.1522408,4.7653666 2.0507467,4.5203385 1.9999999,4.2652164 2,4 1.9999999,3.7347832 2.0507467,3.4796607 2.1522408,3.2346327 2.2537346,2.9896047 2.3982499,2.7733226 2.5857863,2.5857863 2.7733226,2.3982499 2.9896047,2.2537348 3.2346327,2.1522408 3.4796607,2.0507469 3.7347832,2 4,2 Z" /></g></g></g><g
       id="g408"><g
         clip-path="url(#clipPath414)"
         id="g410"><g
           clip-path="url(#clipPath420)"
           id="g416"><g
             clip-path="url(#clipPath426)"
             id="g422"><g
               clip-path="url(#clipPath432)"
               id="g428"><g
                 transform="matrix(-2.5093608,0,0,-2.5093608,2715.8564,1090.9827)"
                 id="g434"><path
                   id="path436"
                   style="fill:#000229;fill-opacity:1;fill-rule:nonzero;stroke:none"
                   d="M 0,0 4,2 0,4 Z" /></g></g></g></g></g></g><g
       id="g438"><g
         clip-path="url(#clipPath444)"
         id="g440"><g
           transform="matrix(2.5093608,0,0,2.5093608,972.47797,946.65637)"
           id="g446"><path
             id="path448"
             style="fill:#000229;fill-opacity:1;fill-rule:nonzero;stroke:none"
             d="m 694.75,-271.8544 h 9 v 1 h -9 z m 12,0 h 9 v 1 h -9 z m 12,0 h 9 v 1 h -9 z m 12,0 h 9 v 1 h -9 z m 12,0 h 9 v 1 h -9 z m 12,0 h 9 v 1 h -9 z m 12,0 h 9 v 1 h -9 z m 12,0 h 9 v 1 h -9 z m 12,0 h 9 v 1 h -9 z m 12,0 h 9 v 1 h -9 z m 12,0 h 9 v 1 h -9 z m 12,0 h 9 v 1 h -9 z m 12,0 h 9 v 1 h -9 z m 12,0 h 9 v 1 h -9 z m 12,0 h 9 v 1 h -9 z m 12,0 h 9 v 1 h -9 z m 12,0 h 9 v 1 h -9 z m 12,0 h 9 v 1 h -9 z m 12,0 h 9 v 1 h -9 z m 12,0 h 9 v 1 h -9 z m 12,0 h 2.7124 v 7.2876 h -1 v -6.7876 h 0.5 v 0.5 H 934.75 Z m 2.7124,10.2876 v 9 h -1 v -9 z m 0,12 v 9 h -1 v -9 z m 0,12 v 9 h -1 v -9 z m 0,12 v 9 h -1 v -9 z m 0,12 v 9 h -1 v -9 z m 0,12 v 9 h -1 v -9 z m 0,12 v 9 h -1 v -9 z m 0,12 v 9 h -1 v -9 z m 0,12 v 9 h -1 v -9 z m 0,12 v 9 h -1 v -9 z m 0,12 v 9 h -1 v -9 z m 0,12 v 9 h -1 v -9 z m 0,12.00001 v 8.99999 h -1 v -8.99999 z m 0,11.99999 v 8.999997 h -1 v -8.999997 z m 0,11.999997 v 9 h -1 v -9 z m 0,11.999985 v 9.000015 h -1 v -9.000015 z m 0,12.000015 v 9 h -1 v -9 z m 0,12 v 9 h -1 v -9 z m 0,11.999985 v 9.000015 h -1 v -9.000015 z m 0,12.000015 v 9 h -1 v -9 z m 0,12 v 9 h -1 v -9 z m 0,12 v 9.00000002 h -1 V -9.566803 Z m 0,12 v 9 h -1 v -9 z m 0,12 v 4.834847 h -5.16516 v -1 h 4.66516 v 0.5 h -0.5 v -4.334847 z m -8.16516,4.834847 h -9 v -1 h 9 z m -12,0 h -9 v -1 h 9 z m -12,0 h -9 v -1 h 9 z m -12,0 h -9 v -1 h 9 z m -12,0 h -9 v -1 h 9 z m -12,0 h -9 v -1 h 9 z m -12,0 h -9 v -1 h 9 z m -12,0 h -9 v -1 h 9 z m -12,0 h -9 v -1 h 9 z m -12,0 h -9 v -1 h 9 z m -12,0 h -9 v -1 h 9 z m -12,0 h -9 v -1 h 9 z m -12,0 h -9 v -1 h 9 z m -12,0 h -9 v -1 h 9 z m -12,0 h -9 v -1 h 9 z m -12,0 h -9 v -1 h 9 z m -12,0 h -9 v -1 h 9 z m -12,0 h -9 v -1 h 9 z m -12,0 h -9 v -1 h 9 z m -12,0 H 694.75 v -1 h 6.54724 z" /></g></g></g><g
       id="g450"><g
         clip-path="url(#clipPath456)"
         id="g452"><g
           transform="matrix(2.5093608,0,0,2.5093608,2700.8003,255.69281)"
           id="g458"><path
             id="path460"
             style="fill:#000229;fill-opacity:1;fill-rule:nonzero;stroke:none"
             d="M 4,2 C 4.2652164,2 4.5203385,2.0507469 4.7653666,2.152241 5.0103946,2.2537348 5.2266765,2.3982499 5.4142132,2.5857863 5.6017489,2.7733226 5.746264,2.9896047 5.8477583,3.2346327 5.9492521,3.4796607 5.9999995,3.7347832 6,4 5.9999995,4.2652164 5.9492521,4.5203385 5.8477583,4.7653666 5.746264,5.0103946 5.6017489,5.2266765 5.4142132,5.4142132 5.2266765,5.6017489 5.0103946,5.746264 4.7653666,5.8477583 4.5203385,5.9492521 4.2652164,5.9999995 4,6 3.7347832,5.9999995 3.4796607,5.9492521 3.2346327,5.8477583 2.9896047,5.746264 2.7733226,5.6017489 2.5857863,5.4142132 2.3982499,5.2266765 2.2537346,5.0103946 2.1522408,4.7653666 2.0507467,4.5203385 1.9999999,4.2652164 2,4 1.9999999,3.7347832 2.0507467,3.4796607 2.1522408,3.2346327 2.2537346,2.9896047 2.3982499,2.7733226 2.5857863,2.5857863 2.7733226,2.3982499 2.9896047,2.2537348 3.2346327,2.1522408 3.4796607,2.0507469 3.7347832,2 4,2 Z" /></g></g></g><g
       id="g462"><g
         clip-path="url(#clipPath468)"
         id="g464"><g
           clip-path="url(#clipPath474)"
           id="g470"><g
             clip-path="url(#clipPath480)"
             id="g476"><g
               clip-path="url(#clipPath486)"
               id="g482"><g
                 transform="matrix(-2.5093608,0,0,-2.5093608,2715.8564,998.77087)"
                 id="g488"><path
                   id="path490"
                   style="fill:#000229;fill-opacity:1;fill-rule:nonzero;stroke:none"
                   d="M 0,0 4,2 0,4 Z" /></g></g></g></g></g></g><g
       id="g492"><g
         clip-path="url(#clipPath498)"
         id="g494"><g
           transform="matrix(2.5093608,0,0,2.5093608,972.47797,946.65637)"
           id="g500"><path
             id="path502"
             style="fill:#000229;fill-opacity:1;fill-rule:nonzero;stroke:none"
             d="m 694.75,-238.24373 h 9 v 1 h -9 z m 12,0 h 9 v 1 h -9 z m 12,0 h 9 v 1 h -9 z m 12,0 h 9 v 1 h -9 z m 12,0 h 9 v 1 h -9 z m 12,0 h 9 v 1 h -9 z m 12,0 h 9 v 1 h -9 z m 12,0 h 9 v 1 h -9 z m 12,0 h 9 v 1 h -9 z m 12,0 h 9 v 1 h -9 z m 12,0 h 9 v 1 h -9 z m 12,0 h 9 v 1 h -9 z m 12,0 h 9 v 1 h -9 z m 12,0 h 9 v 1 h -9 z m 12,0 h 9 v 1 h -9 z m 12,0 h 9 v 1 h -9 z m 12,0 h 9 v 1 h -9 z m 12,0 h 9 v 1 h -9 z m 12,0 h 9 v 1 h -9 z m 12,0 h 9 v 1 h -9 z m 12,0 h 9 v 1 h -9 z m 12,0 h 9 v 1 h -9 z m 12,0 h 9 v 1 h -9 z m 12,0 h 9 v 1 h -9 z m 12,0 h 9 v 1 h -9 z m 12,0 h 9 v 1 h -9 z m 12,0 h 9 v 1 h -9 z m 12,0 h 9 v 1 h -9 z m 12,0 h 9 v 1 h -9 z m 12,0 h 9 v 1 h -9 z m 12,0 h 9 v 1 h -9 z m 12,0 h 9 v 1 h -9 z m 12,0 h 9 v 1 h -9 z m 12,0 h 0.5981 v 9.40186 h -1 v -8.90186 h 0.5 v 0.5 h -0.098 v -1 z m 0.5981,12.40186 v 9 h -1 v -9 z m 0,12 v 9 h -1 v -9 z m 0,12 v 9 h -1 v -9 z m 0,12 v 9 h -1 v -9 z m 0,12 v 9 h -1 v -9 z m 0,12 v 9 h -1 v -9 z m 0,12 v 9 h -1 v -9 z m 0,12 v 9.00001 h -1 v -9.00001 z m 0,12.00001 v 8.99999 h -1 v -8.99999 z m 0,11.99999 v 9.00001 h -1 v -9.00001 z m 0,12 v 9.000012 h -1 v -9.000012 z m 0,11.999997 v 9.000015 h -1 v -9.000015 z m 0,12 v 9.000015 h -1 v -9.000015 z m 0,12.000015 v 9 h -1 v -9 z m 0,12 v 9 h -1 v -9 z m 0,12 v 9 h -1 v -9 z m 0,12 v 9 h -1 v -9 z m 0,12 v 9 h -1 v -9 z m 0,12.0000001 v 1.7955885 h -8.2043 v -1 h 7.7043 v 0.5 h -0.5 v -1.2955885 z m -11.2043,1.7955885 h -9 v -1 h 9 z m -12,0 h -9 v -1 h 9 z m -12,0 h -9 v -1 h 9 z m -12,0 h -9.0001 v -1 h 9.0001 z m -12,0 h -9.0001 v -1 h 9.0001 z m -12.0001,0 h -9 v -1 h 9 z m -12,0 h -8.99996 v -1 h 8.99996 z m -11.99996,0 h -9 v -1 h 9 z m -12,0 h -9 v -1 h 9 z m -12,0 h -9 v -1 h 9 z m -12,0 h -9 v -1 h 9 z m -12,0 h -9 v -1 h 9 z m -12,0 h -9 v -1 h 9 z m -12,0 h -9 v -1 h 9 z m -12,0 h -9 v -1 h 9 z m -12,0 h -9 v -1 h 9 z m -12,0 h -9 v -1 h 9 z m -12,0 h -9 v -1 h 9 z m -12,0 h -9 v -1 h 9 z m -12,0 h -9 v -1 h 9 z m -12,0 h -9 v -1 h 9 z m -12,0 h -9 v -1 h 9 z m -12,0 h -9 v -1 h 9 z m -12,0 h -9 v -1 h 9 z m -12,0 h -9 v -1 h 9 z m -12,0 h -9 v -1 h 9 z m -12,0 h -9 v -1 h 9 z m -12,0 h -9 v -1 h 9 z m -12,0 h -9 v -1 h 9 z m -12,0 h -9 v -1 h 9 z m -12,0 h -9 v -1 h 9 z m -12,0 h -9 v -1 h 9 z m -12,0 h -1.3938 v -1 h 1.3938 z" /></g></g></g><g
       id="g504"><g
         clip-path="url(#clipPath510)"
         id="g506"><g
           transform="matrix(2.5093608,0,0,2.5093608,2700.8003,340.03412)"
           id="g512"><path
             id="path514"
             style="fill:#000229;fill-opacity:1;fill-rule:nonzero;stroke:none"
             d="M 4,2 C 4.2652164,2 4.5203385,2.0507469 4.7653666,2.152241 5.0103946,2.2537348 5.2266765,2.3982499 5.4142132,2.5857863 5.6017489,2.7733226 5.746264,2.9896047 5.8477583,3.2346327 5.9492521,3.4796607 5.9999995,3.7347832 6,4 5.9999995,4.2652164 5.9492521,4.5203385 5.8477583,4.7653666 5.746264,5.0103946 5.6017489,5.2266765 5.4142132,5.4142132 5.2266765,5.6017489 5.0103946,5.746264 4.7653666,5.8477583 4.5203385,5.9492521 4.2652164,5.9999995 4,6 3.7347832,5.9999995 3.4796607,5.9492521 3.2346327,5.8477583 2.9896047,5.746264 2.7733226,5.6017489 2.5857863,5.4142132 2.3982499,5.2266765 2.2537346,5.0103946 2.1522408,4.7653666 2.0507467,4.5203385 1.9999999,4.2652164 2,4 1.9999999,3.7347832 2.0507467,3.4796607 2.1522408,3.2346327 2.2537346,2.9896047 2.3982499,2.7733226 2.5857863,2.5857863 2.7733226,2.3982499 2.9896047,2.2537348 3.2346327,2.1522408 3.4796607,2.0507469 3.7347832,2 4,2 Z" /></g></g></g><g
       id="g516"><g
         clip-path="url(#clipPath522)"
         id="g518"><g
           clip-path="url(#clipPath528)"
           id="g524"><g
             clip-path="url(#clipPath534)"
             id="g530"><g
               clip-path="url(#clipPath540)"
               id="g536"><g
                 transform="matrix(-2.5093608,0,0,-2.5093608,2715.8562,930.22943)"
                 id="g542"><path
                   id="path544"
                   style="fill:#000229;fill-opacity:1;fill-rule:nonzero;stroke:none"
                   d="M 0,0 4,2 0,4 Z" /></g></g></g></g></g></g><g
       id="g546"><g
         clip-path="url(#clipPath552)"
         id="g548"><g
           transform="matrix(2.5093608,0,0,2.5093608,972.47797,946.65637)"
           id="g554"><path
             id="path556"
             style="fill:#000229;fill-opacity:1;fill-rule:nonzero;stroke:none"
             d="m 694.75,-27.251055 h 9 v 1 h -9 z m 12,0 h 9 v 1 h -9 z m 12,0 h 9 v 1 h -9 z m 12,0 h 9 v 1 h -9 z m 12,0 h 9 v 1 h -9 z m 12,0 h 9 v 1 h -9 z m 12,0 h 9 v 1 h -9 z m 12,0 h 9 v 1 h -9 z m 12,0 h 9 v 1 h -9 z m 12,0 h 9 v 1 h -9 z m 12,0 h 9 v 1 h -9 z m 12,0 h 9 v 1 h -9 z m 12,0 h 9 v 1 h -9 z m 9.95435,-1.045654 v -9.000002 h 1 v 9.000002 z m 0,-12.000002 v -9 h 1 v 9 z m 0,-12 v -9.000004 h 1 v 9.000004 z m 0,-12.000004 v -9 h 1 v 9 z m 0,-12 v -9 h 1 v 9 z m 0,-12 v -2.057678 h 0.5 v 0.5 h -6.94233 v -1 h 7.44233 v 2.557678 z m -9.44233,-1.557678 h -9 v -1 h 9 z m -12,0 h -9 v -1 h 9 z m -12,0 h -9 v -1 h 9 z m -12,0 h -9 v -1 h 9 z m -12,0 h -9 v -1 h 9 z m -12,0 h -9 v -1 h 9 z m -12,0 h -9 v -1 h 9 z m -12,0 h -9 v -1 h 9 z m -12,0 h -9 v -1 h 9 z m -12,0 h -9 v -1 h 9 z m -12,0 h -9 v -1 h 9 z m -12,0 h -9 v -1 h 9 z m -12,0 H 694.75 v -1 h 0.51202 z" /></g></g></g><g
       id="g558"><g
         clip-path="url(#clipPath564)"
         id="g560"><g
           transform="matrix(2.5093608,0,0,2.5093608,2700.8003,869.49091)"
           id="g566"><path
             id="path568"
             style="fill:#000229;fill-opacity:1;fill-rule:nonzero;stroke:none"
             d="M 4,2 C 4.2652164,2 4.5203385,2.0507469 4.7653666,2.152241 5.0103946,2.2537348 5.2266765,2.3982499 5.4142132,2.5857863 5.6017489,2.7733226 5.746264,2.9896047 5.8477583,3.2346327 5.9492521,3.4796607 5.9999995,3.7347832 6,4 5.9999995,4.2652164 5.9492521,4.5203385 5.8477583,4.7653666 5.746264,5.0103946 5.6017489,5.2266765 5.4142132,5.4142132 5.2266765,5.6017489 5.0103946,5.746264 4.7653666,5.8477583 4.5203385,5.9492521 4.2652164,5.9999995 4,6 3.7347832,5.9999995 3.4796607,5.9492521 3.2346327,5.8477583 2.9896047,5.746264 2.7733226,5.6017489 2.5857863,5.4142132 2.3982499,5.2266765 2.2537346,5.0103946 2.1522408,4.7653666 2.0507467,4.5203385 1.9999999,4.2652164 2,4 1.9999999,3.7347832 2.0507467,3.4796607 2.1522408,3.2346327 2.2537346,2.9896047 2.3982499,2.7733226 2.5857863,2.5857863 2.7733226,2.3982499 2.9896047,2.2537348 3.2346327,2.1522408 3.4796607,2.0507469 3.7347832,2 4,2 Z" /></g></g></g><g
       id="g570"><g
         clip-path="url(#clipPath576)"
         id="g572"><g
           clip-path="url(#clipPath582)"
           id="g578"><g
             clip-path="url(#clipPath588)"
             id="g584"><g
               clip-path="url(#clipPath594)"
               id="g590"><g
                 transform="matrix(-2.5093608,0,0,-2.5093608,2715.8564,724.94336)"
                 id="g596"><path
                   id="path598"
                   style="fill:#000229;fill-opacity:1;fill-rule:nonzero;stroke:none"
                   d="M 0,0 4,2 0,4 Z" /></g></g></g></g></g></g><g
       id="g600"><g
         clip-path="url(#clipPath606)"
         id="g602"><g
           transform="matrix(2.5093608,0,0,2.5093608,972.47797,946.65637)"
           id="g608"><path
             id="path610"
             style="fill:#000229;fill-opacity:1;fill-rule:nonzero;stroke:none"
             d="m 694.75,-309.8544 h 9 v 1 h -9 z m 12,0 h 9 v 1 h -9 z m 12,0 h 9 v 1 h -9 z m 12,0 h 9 v 1 h -9 z m 12,0 h 9 v 1 h -9 z m 12,0 h 9 v 1 h -9 z m 12,0 h 9 v 1 h -9 z m 12,0 h 9 v 1 h -9 z m 12,0 h 9 v 1 h -9 z m 12,0 h 9 v 1 h -9 z m 12,0 h 9 v 1 h -9 z m 12,0 h 9 v 1 h -9 z m 12,0 h 9 v 1 h -9 z m 12,0 h 9 v 1 h -9 z m 12,0 h 9 v 1 h -9 z m 12,0 h 9 v 1 h -9 z m 12,0 h 9 v 1 h -9 z m 12,0 h 9 v 1 h -9 z m 12,0 h 9 v 1 h -9 z m 12,0 h 9 v 1 h -9 z m 12,0 h 9 v 1 h -9 z m 12,0 h 9 v 1 h -9 z m 12,0 h 9 v 1 h -9 z m 12,0 h 9 v 1 h -9 z m 12,0 h 9 v 1 h -9 z m 12,0 h 9 v 1 h -9 z m 12,0 h 9 v 1 h -9 z m 12,0 h 9 v 1 h -9 z m 12,0 h 9 v 1 h -9 z m 12,0 h 9 v 1 h -9 z m 12,0 h 9 v 1 h -9 z m 12,0 h 9 v 1 h -9 z m 10.2013,2.79871 v 9 h -1 v -9 z m 0,12 v 9 h -1 v -9 z m 0,12 v 9 h -1 v -9 z m 0,12 v 9 h -1 v -9 z m 0,12 v 9 h -1 v -9 z m 0,12 v 9 h -1 v -9 z m 0,12 v 9 h -1 v -9 z m 0,12 v 9 h -1 v -9 z m 0,12 v 9 h -1 v -9 z m 0,12 v 9 h -1 v -9 z m 0,12 v 9 h -1 v -9 z m 0,12 v 9 h -1 v -9 z m 0,12 v 9 h -1 v -9 z m 0,12 v 9 h -1 v -9 z m 0,12 v 9 h -1 v -9 z m 0,12.00001 v 8.99998 h -1 v -8.99998 z m 0,11.99998 v 9.00002 h -1 v -9.00002 z m 0,12 v 9.000005 h -1 v -9.000005 z m 0,11.99999 v 9.000015 h -1 v -9.000015 z m 0,12.000015 v 8.999985 h -1 v -8.999985 z m 0,12 v 9 h -1 v -9 z m 0,12 v 9 h -1 v -9 z m 0,12 v 9 h -1 v -9 z m 0,12 v 9 h -1 v -9 z m 0,12 v 4.09059 h -5.9094 v -1 h 5.4094 v 0.5 h -0.5 v -3.59059 z m -8.9094,4.09059 h -9 v -1 h 9 z m -12,0 h -9 v -1 h 9 z m -12,0 h -9 v -1 h 9 z m -12,0 h -9 v -1 h 9 z m -12,0 h -9 v -1 h 9 z m -12,0 h -9.00003 v -1 h 9.00003 z m -12.00003,0 h -9 v -1 h 9 z m -12,0 h -9 v -1 h 9 z m -12,0 h -9 v -1 h 9 z m -12,0 h -9 v -1 h 9 z m -12,0 h -9 v -1 h 9 z m -12,0 h -9 v -1 h 9 z m -12,0 h -9 v -1 h 9 z m -12,0 h -9 v -1 h 9 z m -12,0 h -9 v -1 h 9 z m -12,0 h -9 v -1 h 9 z m -12,0 h -9 v -1 h 9 z m -12,0 h -9 v -1 h 9 z m -12,0 h -9 v -1 h 9 z m -12,0 h -9 v -1 h 9 z m -12,0 h -9 v -1 h 9 z m -12,0 h -9 v -1 h 9 z m -12,0 h -9 v -1 h 9 z m -12,0 h -9 v -1 h 9 z m -12,0 h -9 v -1 h 9 z m -12,0 h -9 v -1 h 9 z m -12,0 h -9 v -1 h 9 z m -12,0 h -9 v -1 h 9 z m -12,0 h -9 v -1 h 9 z m -12,0 h -9 v -1 h 9 z m -12,0 h -9 v -1 h 9 z m -12,0 H 694.75 v -1 h 1.29187 z" /></g></g></g><g
       id="g612"><g
         clip-path="url(#clipPath618)"
         id="g614"><g
           transform="matrix(2.5093608,0,0,2.5093608,2700.8003,160.3371)"
           id="g620"><path
             id="path622"
             style="fill:#000229;fill-opacity:1;fill-rule:nonzero;stroke:none"
             d="M 4,2 C 4.2652164,2 4.5203385,2.0507469 4.7653666,2.152241 5.0103946,2.2537348 5.2266765,2.3982499 5.4142132,2.5857863 5.6017489,2.7733226 5.746264,2.9896047 5.8477583,3.2346327 5.9492521,3.4796607 5.9999995,3.7347832 6,4 5.9999995,4.2652164 5.9492521,4.5203385 5.8477583,4.7653666 5.746264,5.0103946 5.6017489,5.2266765 5.4142132,5.4142132 5.2266765,5.6017489 5.0103946,5.746264 4.7653666,5.8477583 4.5203385,5.9492521 4.2652164,5.9999995 4,6 3.7347832,5.9999995 3.4796607,5.9492521 3.2346327,5.8477583 2.9896047,5.746264 2.7733226,5.6017489 2.5857863,5.4142132 2.3982499,5.2266765 2.2537346,5.0103946 2.1522408,4.7653666 2.0507467,4.5203385 1.9999999,4.2652164 2,4 1.9999999,3.7347832 2.0507467,3.4796607 2.1522408,3.2346327 2.2537346,2.9896047 2.3982499,2.7733226 2.5857863,2.5857863 2.7733226,2.3982499 2.9896047,2.2537348 3.2346327,2.1522408 3.4796607,2.0507469 3.7347832,2 4,2 Z" /></g></g></g><g
       id="g624"><g
         clip-path="url(#clipPath630)"
         id="g626"><g
           clip-path="url(#clipPath636)"
           id="g632"><g
             clip-path="url(#clipPath642)"
             id="g638"><g
               clip-path="url(#clipPath648)"
               id="g644"><g
                 transform="matrix(-2.5093608,0,0,-2.5093608,2715.8564,912.86755)"
                 id="g650"><path
                   id="path652"
                   style="fill:#000229;fill-opacity:1;fill-rule:nonzero;stroke:none"
                   d="M 0,0 4,2 0,4 Z" /></g></g></g></g></g></g><g
       id="g654"><g
         clip-path="url(#clipPath660)"
         id="g656"><g
           clip-path="url(#clipPath666)"
           id="g662"><g
             clip-path="url(#clipPath672)"
             id="g668"><g
               clip-path="url(#clipPath678)"
               id="g674"><g
                 clip-path="url(#clipPath684)"
                 id="g680"><g
                   transform="matrix(2.5093608,0,0,2.5093608,972.47797,946.65637)"
                   id="g686"><path
                     id="path688"
                     style="fill:#000229;fill-opacity:1;fill-rule:nonzero;stroke:none"
                     d="m 195.00002,254.25092 h -9 v -1 h 9 z m -12,0 h -9 v -1 h 9 z m -12,0 h -9.00001 v -1 h 9.00001 z m -12.00001,0 h -9 v -1 h 9 z m -12,0 h -9 v -1 h 9 z m -12,0 h -8.99999 v -1 h 8.99999 z m -11.99999,0 h -9 v -1 h 9 z m -12,0 h -9 v -1 h 9 z m -12.000005,0 h -9 v -1 h 9 z m -12,0 h -9 v -1 h 9 z m -12,0 h -3.203132 v -6.79688 h 1 v 6.29688 h -0.5 v -0.5 h 2.703132 z m -3.203132,-9.79688 v -9 h 1 v 9 z m 0,-12 v -9 h 1 v 9 z m 0,-12 v -9 h 1 v 9 z m 0,-12 v -9 h 1 v 9 z m 0,-12 v -9 h 1 v 9 z m 0,-12 v -9 h 1 v 9 z m 0,-12 v -9 h 1 v 9 z m 0,-12 v -9 h 1 v 9 z m 0,-12 v -9 h 1 v 9 z m 0,-12 v -8.99999 h 1 v 8.99999 z m 0,-12 v -9 h 1 v 9 z m 0,-12 v -9 h 1 v 9 z m 0,-12 v -8.999999 h 1 v 8.999999 z m 0,-11.999999 v -9 h 1 v 9 z m 0,-12 v -9 h 1 v 9 z m 0,-12 v -4.954045 h 5.045959 v 1 h -4.545959 v -0.5 h 0.5 v 4.454045 z m 8.045959,-4.954045 h 9 v 1 h -9 z m 12,0 h 8.999998 v 1 h -8.999998 z m 11.999998,0 h 9 v 1 h -9 z m 12,0 h 8.99999 v 1 h -8.99999 z m 11.99999,0 h 9 v 1 h -9 z m 12,0 h 9 v 1 h -9 z m 12,0 h 9 v 1 h -9 z m 12,0 h 9 v 1 h -9 z m 12,0 h 9 v 1 h -9 z m 12,0 H 195 v 1 h -7.15717 z" /></g></g></g></g></g></g></g><g
       id="g690"><g
         clip-path="url(#clipPath696)"
         id="g692"><g
           clip-path="url(#clipPath702)"
           id="g698"><g
             clip-path="url(#clipPath708)"
             id="g704"><g
               clip-path="url(#clipPath714)"
               id="g710"><g
                 clip-path="url(#clipPath720)"
                 id="g716"><g
                   clip-path="url(#clipPath726)"
                   id="g722"><g
                     transform="matrix(-2.5093608,0,0,-2.5093608,1476.8595,1593.4464)"
                     id="g728"><path
                       id="path730"
                       style="fill:#000229;fill-opacity:1;fill-rule:nonzero;stroke:none"
                       d="M 4,2 C 4.2652164,2 4.5203385,2.0507469 4.7653666,2.152241 5.0103946,2.2537348 5.2266765,2.3982499 5.4142132,2.5857863 5.6017489,2.7733226 5.746264,2.9896047 5.8477583,3.2346327 5.9492521,3.4796607 5.9999995,3.7347832 6,4 5.9999995,4.2652164 5.9492521,4.5203385 5.8477583,4.7653666 5.746264,5.0103946 5.6017489,5.2266765 5.4142132,5.4142132 5.2266765,5.6017489 5.0103946,5.746264 4.7653666,5.8477583 4.5203385,5.9492521 4.2652164,5.9999995 4,6 3.7347832,5.9999995 3.4796607,5.9492521 3.2346327,5.8477583 2.9896047,5.746264 2.7733226,5.6017489 2.5857863,5.4142132 2.3982499,5.2266765 2.2537346,5.0103946 2.1522408,4.7653666 2.0507467,4.5203385 1.9999999,4.2652164 2,4 1.9999999,3.7347832 2.0507467,3.4796607 2.1522408,3.2346327 2.2537346,2.9896047 2.3982499,2.7733226 2.5857863,2.5857863 2.7733226,2.3982499 2.9896047,2.2537348 3.2346327,2.1522408 3.4796607,2.0507469 3.7347832,2 4,2 Z" /></g></g></g></g></g></g></g></g><g
       id="g732"><g
         clip-path="url(#clipPath738)"
         id="g734"><g
           clip-path="url(#clipPath744)"
           id="g740"><g
             clip-path="url(#clipPath750)"
             id="g746"><g
               clip-path="url(#clipPath756)"
               id="g752"><g
                 clip-path="url(#clipPath762)"
                 id="g758"><g
                   clip-path="url(#clipPath768)"
                   id="g764"><g
                     transform="matrix(2.5093608,0,0,2.5093608,1461.8033,1092.1993)"
                     id="g770"><path
                       id="path772"
                       style="fill:#000229;fill-opacity:1;fill-rule:nonzero;stroke:none"
                       d="M 0,0 4,2 0,4 Z" /></g></g></g></g></g></g></g></g><g
       id="g774"><g
         clip-path="url(#clipPath780)"
         id="g776"><g
           transform="matrix(2.5093608,0,0,2.5093608,972.47797,946.65637)"
           id="g782"><path
             id="path784"
             style="fill:#ffffff;fill-opacity:1;fill-rule:nonzero;stroke:none"
             d="m 23.918221,148.37546 h 96.757329 v 17 H 23.918221 Z" /></g><g
           transform="matrix(3.1250002,0,0,3.1250002,1153.897,1318.9839)"
           id="g786"><text
             id="text790"
             style="font-variant:normal;font-weight:500;font-size:10.43000031px;font-family:NeverMind;-inkscape-font-specification:NeverMind-CondensedMedium;writing-mode:lr-tb;fill:#000229;fill-opacity:1;fill-rule:nonzero;stroke:none"
             transform="translate(-38.814453,10.43894)"><tspan
               id="tspan788"
               y="0"
               x="0 5.5358276 8.2146149 14.341202 20.202972 25.978165 28.830109 35.817383 38.669327 41.180054 47.041824 49.552551 53.326279 55.837006 61.500153 64.321533 66.659103 71.853714">clone &amp; initialize</tspan></text>
</g></g></g><g
       id="g792"><g
         clip-path="url(#clipPath798)"
         id="g794"><g
           clip-path="url(#clipPath804)"
           id="g800"><g
             clip-path="url(#clipPath810)"
             id="g806"><g
               clip-path="url(#clipPath816)"
               id="g812"><g
                 clip-path="url(#clipPath822)"
                 id="g818"><g
                   transform="matrix(2.5093608,0,0,2.5093608,972.47797,946.65637)"
                   id="g824"><path
                     id="path826"
                     style="fill:#000229;fill-opacity:1;fill-rule:nonzero;stroke:none"
                     d="m 195,255.10928 h -9 v -1 h 9 z m -12,0 h -9 v -1 h 9 z m -12,0 h -9 v -1 h 9 z m -12,0 h -9 v -1 h 9 z m -12,0 h -9 v -1 h 9 z m -12,0 h -9 v -1 h 9 z m -12,0 h -9 v -1 h 9 z m -12,0 h -9.00001 v -1 H 111 Z m -12.000008,0 H 90 v -1 h 8.999992 z m -11.999992,0 h -9 v -1 h 9 z m -12,0 h -9 v -1 h 9 z m -12,0 h -9 v -1 h 9 z m -12,0 h -9 v -1 h 9 z m -12,0 h -9 v -1 h 9 z m -12,0 h -9 v -1 h 9 z m -12,0 H 5.9999847 v -1 H 15 Z m -12.0000153,0 H -6 v -1 H 2.9999847 Z M -9,255.10928 h -9 v -1 h 9 z m -12,0 h -9 v -1 h 9 z m -12,0 h -9 v -1 h 9 z m -12,0 h -8.999985 v -1 H -45 Z m -11.999985,0 H -66 v -1 h 9.000015 z m -12.000015,0 h -9 v -1 h 9 z m -12,0 h -9 v -1 h 9 z m -12,0 h -9 v -1 h 9 z m -12,0 h -9 v -1 h 9 z m -12,0 h -9 v -1 h 9 z m -12,0 h -9 v -1 h 9 z m -12,0 h -9 v -1 h 9 z m -12,0 h -9 v -1 h 9 z m -12,0 h -9 v -1 h 9 z m -12.24197,-0.75802 v -9 h 1 v 9 z m 0,-12 v -9 h 1 v 9 z m 0,-12 v -9 h 1 v 9 z m 0,-12 v -9 h 1 v 9 z m 0,-12 v -9 h 1 v 9 z m 0,-12 v -9 h 1 v 9 z m 0,-12 v -9 h 1 v 9 z m 0,-12 v -9 h 1 v 9 z m 0,-12 v -9 h 1 v 9 z m 0,-12 v -9 h 1 v 9 z m 0,-12.00002 v -9 h 1 v 9 z m 0,-11.99998 v -9.00002 h 1 v 9.00002 z m 0,-12.00002 v -9 h 1 v 9 z m 0,-11.999998 v -9 h 1 v 9 z m 0,-12 v -9.000015 h 1 v 9.000015 z m 0,-12 v -9 h 1 v 9 z m 0,-12 v -9 h 1 v 9 z m 0,-12.000015 v -9 h 1 v 9 z m 0,-11.999985 v -9 h 1 v 9 z m 0,-12 v -9.000015 h 1 v 9.000015 z m 0,-12.000015 V 5.3512268 h 1 v 9.0000002 z m 0,-11.9999849 v -9.0000153 h 1 v 9.0000153 z m 0,-12.0000153 v -8.9999998 h 1 v 8.9999998 z m 0,-11.9999998 v -9 h 1 v 9 z m 0,-12 v -9 h 1 v 9 z m 0,-12 v -9 h 1 v 9 z m 0,-12 v -9 h 1 v 9 z m 0,-12 v -9 h 1 v 9 z m 0,-12 v -7.055428 h 2.94458 v 1 h -2.44458 v -0.5 h 0.5 v 6.555428 z m 5.94458,-7.055428 h 9 v 1 h -9 z m 12,0 h 9 v 1 h -9 z m 12,0 h 9 v 1 h -9 z m 12,0 h 9 v 1 h -9 z m 12,0 h 9 v 1 h -9 z m 12,0 h 9 v 1 h -9 z m 12.000004,0 h 9 v 1 h -9 z m 12,0 h 9 v 1 h -9 z m 12,0 h 9 v 1 h -9 z m 12,0 h 9.000007 v 1 h -9.000007 z m 12.000007,0 h 9 v 1 h -9 z m 12,0 h 9 v 1 h -9 z m 11.999985,0 h 9.000015 v 1 h -9.000015 z m 12.000016,0 h 8.9999995 v 1 h -8.9999995 z m 11.9999995,0 h 9 v 1 h -9 z m 12,0 h 9.0000155 v 1 H 8.7026215 Z m 12.0000155,0 h 8.999984 v 1 h -8.999984 z m 11.999984,0 h 9 v 1 h -9 z m 12,0 h 9 v 1 h -9 z m 12,0 h 9 v 1 h -9 z m 12,0 h 9.000016 v 1 h -9.000016 z m 12.000016,0 h 9 v 1 h -9 z m 12,0 h 9.000003 v 1 h -9.000003 z m 12.000003,0 h 9 v 1 h -9 z m 12,0 h 9 v 1 h -9 z m 11.99997,0 h 9.00003 v 1 h -9.00003 z m 12.00003,0 h 9 v 1 h -9 z m 12,0 h 9 v 1 h -9 z m 12,0 h 9 v 1 h -9 z m 12,0 h 9 v 1 h -9 z m 12,0 H 195 v 1 h -6.29736 z" /></g></g></g></g></g></g></g><g
       id="g828"><g
         clip-path="url(#clipPath834)"
         id="g830"><g
           clip-path="url(#clipPath840)"
           id="g836"><g
             clip-path="url(#clipPath846)"
             id="g842"><g
               clip-path="url(#clipPath852)"
               id="g848"><g
                 clip-path="url(#clipPath858)"
                 id="g854"><g
                   clip-path="url(#clipPath864)"
                   id="g860"><g
                     transform="matrix(-2.5093608,0,0,-2.5093608,1476.8595,1595.6003)"
                     id="g866"><path
                       id="path868"
                       style="fill:#000229;fill-opacity:1;fill-rule:nonzero;stroke:none"
                       d="M 4,2 C 4.2652164,2 4.5203385,2.0507469 4.7653666,2.152241 5.0103946,2.2537348 5.2266765,2.3982499 5.4142132,2.5857863 5.6017489,2.7733226 5.746264,2.9896047 5.8477583,3.2346327 5.9492521,3.4796607 5.9999995,3.7347832 6,4 5.9999995,4.2652164 5.9492521,4.5203385 5.8477583,4.7653666 5.746264,5.0103946 5.6017489,5.2266765 5.4142132,5.4142132 5.2266765,5.6017489 5.0103946,5.746264 4.7653666,5.8477583 4.5203385,5.9492521 4.2652164,5.9999995 4,6 3.7347832,5.9999995 3.4796607,5.9492521 3.2346327,5.8477583 2.9896047,5.746264 2.7733226,5.6017489 2.5857863,5.4142132 2.3982499,5.2266765 2.2537346,5.0103946 2.1522408,4.7653666 2.0507467,4.5203385 1.9999999,4.2652164 2,4 1.9999999,3.7347832 2.0507467,3.4796607 2.1522408,3.2346327 2.2537346,2.9896047 2.3982499,2.7733226 2.5857863,2.5857863 2.7733226,2.3982499 2.9896047,2.2537348 3.2346327,2.1522408 3.4796607,2.0507469 3.7347832,2 4,2 Z" /></g></g></g></g></g></g></g></g><g
       id="g870"><g
         clip-path="url(#clipPath876)"
         id="g872"><g
           clip-path="url(#clipPath882)"
           id="g878"><g
             clip-path="url(#clipPath888)"
             id="g884"><g
               clip-path="url(#clipPath894)"
               id="g890"><g
                 clip-path="url(#clipPath900)"
                 id="g896"><g
                   clip-path="url(#clipPath906)"
                   id="g902"><g
                     transform="matrix(2.5093608,0,0,2.5093608,1461.8033,720.30151)"
                     id="g908"><path
                       id="path910"
                       style="fill:#000229;fill-opacity:1;fill-rule:nonzero;stroke:none"
                       d="M 0,0 4,2 0,4 Z" /></g></g></g></g></g></g></g></g><g
       id="g912"><g
         clip-path="url(#clipPath918)"
         id="g914"><g
           transform="matrix(2.5093608,0,0,2.5093608,972.47797,946.65637)"
           id="g920"><path
             id="path922"
             style="fill:#ffffff;fill-opacity:1;fill-rule:nonzero;stroke:none"
             d="m -225.12064,74.702545 h 96.75732 v 17 h -96.75732 z" /></g><g
           transform="matrix(3.1250002,0,0,3.1250002,528.96869,1134.1119)"
           id="g924"><text
             id="text928"
             style="font-variant:normal;font-weight:500;font-size:10.43000031px;font-family:NeverMind;-inkscape-font-specification:NeverMind-CondensedMedium;writing-mode:lr-tb;fill:#000229;fill-opacity:1;fill-rule:nonzero;stroke:none"
             transform="translate(-38.814453,10.43894)"><tspan
               id="tspan926"
               y="0"
               x="0 5.5358276 8.2146149 14.341202 20.202972 25.978165 28.830109 35.817383 38.669327 41.180054 47.041824 49.552551 53.326279 55.837006 61.500153 64.321533 66.659103 71.853714">clone &amp; initialize</tspan></text>
</g></g></g><g
       id="g930"><g
         clip-path="url(#clipPath936)"
         id="g932"><g
           transform="matrix(2.5093608,0,0,2.5093608,1910.6371,2100.335)"
           id="g938"><path
             id="path940"
             style="fill:#000000;fill-opacity:0.2;fill-rule:nonzero;stroke:none"
             d="M 4.2295098,1.7004 C 4.8837399,1.7004 5.46313,1.82634 5.9677,2.0782199 6.4765401,2.3301001 6.8699298,2.68362 7.1478701,3.1387701 7.4300799,3.58951 7.5711899,4.1087399 7.5711899,4.6964602 7.5711899,5.2886 7.43222,5.8144503 7.1542802,6.2740202 6.8763399,6.7336001 6.4872298,7.0915298 5.9869399,7.3478298 5.4909301,7.59971 4.9200802,7.7256498 4.2744102,7.7256498 H 2.1385601 V 11.2652 h -1.12886 V 1.7004 Z m 0.01283,5.0111002 c 0.43188,0 0.81458,-0.08175 1.1480999,-0.2452503 C 5.7239699,6.2983298 5.9826598,6.06633 6.1665301,5.7702599 6.35467,5.4741902 6.44875,5.13835 6.44875,4.7627401 6.44875,4.3650298 6.3504,4.0115199 6.1536999,3.7021899 5.9612899,3.3884501 5.6897602,3.1454 5.3391299,2.9730601 4.9927797,2.7963099 4.5951099,2.7079301 4.1461301,2.7079301 h -1.99474 v 4.0035701 z" /><path
             id="path942"
             style="fill:#000000;fill-opacity:0.2;fill-rule:nonzero;stroke:none"
             d="M 10.3164,5.3526702 C 10.5259,4.9593801 10.8188,4.6456399 11.1951,4.4114299 11.5756,4.1728101 12.0524,4.05129 12.6254,4.0468702 V 5.0742798 C 11.7488,5.0787001 11.1416,5.2930202 10.8038,5.7172399 10.466,6.1370401 10.295,6.66289 10.2907,7.2947998 V 11.2652 H 9.2003403 V 4.1728101 H 10.2907 v 1.1798601 z" /><path
             id="path944"
             style="fill:#000000;fill-opacity:0.2;fill-rule:nonzero;stroke:none"
             d="m 16.961201,11.3978 c -0.756802,0 -1.404601,-0.148 -1.943401,-0.4441 C 14.479,10.6576 14.0685,10.2312 13.7863,9.6744099 13.5041,9.1176205 13.363,8.45257 13.363,7.6792498 c 0,-0.7291198 0.1347,-1.3676596 0.4041,-1.9156199 0.2736,-0.5479498 0.6542,-0.9699602 1.1417,-1.2660298 0.4917,-0.3004899 1.0583,-0.4507299 1.699699,-0.4507299 0.590102,0 1.120301,0.1369896 1.590601,0.4109598 0.4747,0.2739801 0.850899,0.6606402 1.128899,1.1599802 0.277901,0.4949198 0.425402,1.0671797 0.4426,1.7167597 V 7.54006 c 0,0.2121101 -0.0065,0.4175902 -0.0193,0.6164399 h -5.233801 c 0.0086,0.7291298 0.2331,1.2859201 0.6735,1.6703701 0.4447,0.38003 1.056101,0.57003 1.8344,0.57003 0.3421,0 0.697001,-0.0486 1.064699,-0.1458 C 18.4578,10.1539 18.802,10.0103 19.1227,9.82024 l 0.1989,0.88816 c -0.705601,0.4596 -1.4923,0.6894 -2.360399,0.6894 z M 18.6353,7.2550302 c 0,-0.4286404 -0.0855,-0.8108802 -0.2566,-1.14672 C 18.207701,5.77247 17.9704,5.5117502 17.6668,5.32616 17.3675,5.1361399 17.0275,5.0411401 16.6469,5.0411401 c -0.393301,0 -0.7504,0.095 -1.0711,0.2850199 -0.3207,0.1855902 -0.5772,0.4485201 -0.7697,0.7887802 -0.1881,0.3358397 -0.2864,0.7158699 -0.295,1.14009 z" /><path
             id="path946"
             style="fill:#000000;fill-opacity:0.2;fill-rule:nonzero;stroke:none"
             d="m 23.586901,11.3978 c -0.4832,0 -0.972801,-0.0862 -1.468802,-0.2585 -0.491798,-0.1723 -0.9408,-0.4088 -1.347,-0.7092 L 21.1175,9.5683603 c 0.3976,0.2651301 0.8081,0.4684397 1.231501,0.6098397 0.4233,0.137 0.8167,0.2099 1.180099,0.2187 0.444701,0.0044 0.797499,-0.0795 1.0583,-0.251899 0.265101,-0.1723114 0.3977,-0.4241911 0.3977,-0.755611 0,-0.2165299 -0.0599,-0.4021301 -0.1796,-0.5567904 C 24.6901,8.6779404 24.506201,8.5409498 24.253901,8.4216404 24.005899,8.30233 23.6702,8.1874304 23.246901,8.0769596 22.532801,7.88694 22.006901,7.62181 21.6691,7.2815499 21.3356,6.9368701 21.1688,6.5082302 21.1688,5.9956298 c 0,-0.3800297 0.0941,-0.7180796 0.2822,-1.0141497 0.1924,-0.2960701 0.4597,-0.5258603 0.8018,-0.6893601 0.3463,-0.1634999 0.7418,-0.2452498 1.186501,-0.2452498 0.397699,0 0.797498,0.05745 1.199399,0.1723399 0.402001,0.1104699 0.774001,0.26293 1.116101,0.4573598 L 25.5688,5.6045499 C 24.8461,5.2245202 24.183399,5.0345101 23.5804,5.0345101 c -0.384799,0 -0.7012,0.08617 -0.949199,0.2585101 -0.248001,0.1679197 -0.372002,0.3932796 -0.372002,0.6760998 0,0.20327 0.0556,0.37782 0.166701,0.5236402 0.1112,0.1414099 0.2865,0.27177 0.526,0.3910799 0.239399,0.1148901 0.5623,0.2297897 0.968501,0.3446798 0.748298,0.2076903 1.293499,0.4706202 1.6355,0.7887798 0.346399,0.3137502 0.519599,0.73355 0.519599,1.2594108 0,0.4286394 -0.0984,0.8019895 -0.295101,1.1201895 -0.196699,0.3182 -0.4832,0.5656 -0.859399,0.7424 -0.372,0.1723 -0.8167,0.2585 -1.334099,0.2585 z" /><path
             id="path948"
             style="fill:#000000;fill-opacity:0.2;fill-rule:nonzero;stroke:none"
             d="m 30.6999,11.3978 c -0.7568,0 -1.4046,-0.148 -1.9434,-0.4441 C 28.217701,10.6576 27.807199,10.2312 27.525,9.6744099 27.2428,9.1176205 27.1017,8.45257 27.1017,7.6792498 27.1017,6.95013 27.236401,6.3115902 27.5058,5.7636299 27.779499,5.2156801 28.16,4.7936697 28.647501,4.4976001 29.1392,4.1971102 29.705799,4.0468702 30.3472,4.0468702 c 0.5901,0 1.120301,0.1369896 1.590599,0.4109598 0.474699,0.2739801 0.851,0.6606402 1.128901,1.1599802 0.277901,0.4949198 0.425499,1.0671797 0.4426,1.7167597 V 7.54006 c 0,0.2121101 -0.0065,0.4175902 -0.0193,0.6164399 h -5.233801 c 0.0086,0.7291298 0.233099,1.2859201 0.6735,1.6703701 0.444698,0.38003 1.0562,0.57003 1.834398,0.57003 0.3421,0 0.697001,-0.0486 1.064701,-0.1458 0.367699,-0.0972 0.711998,-0.2408 1.0327,-0.43086 l 0.198799,0.88816 c -0.705601,0.4596 -1.492298,0.6894 -2.360399,0.6894 z m 1.674101,-4.1427698 c 0,-0.4286404 -0.0855,-0.8108802 -0.2566,-1.14672 C 31.9464,5.77247 31.709101,5.5117502 31.4055,5.32616 31.106199,5.1361399 30.766199,5.0411401 30.3857,5.0411401 c -0.3934,0 -0.750499,0.095 -1.071199,0.2850199 -0.320702,0.1855902 -0.5772,0.4485201 -0.7696,0.7887802 -0.1882,0.3358397 -0.286501,0.7158699 -0.295101,1.14009 z" /><path
             id="path950"
             style="fill:#000000;fill-opacity:0.2;fill-rule:nonzero;stroke:none"
             d="M 40.757,11.2652 H 39.660301 V 7.11584 c 0,-0.6981998 -0.151802,-1.22185 -0.455402,-1.5709401 C 38.901299,5.1957998 38.4566,5.0212498 37.8708,5.0212498 c -0.3293,0 -0.628601,0.09943 -0.897999,0.2982802 C 36.707699,5.5139599 36.498199,5.7790999 36.3442,6.1149402 36.194599,6.4507799 36.119701,6.8153501 36.119701,7.2086301 V 11.2652 H 35.022999 V 4.1728101 h 1.096702 v 1.2262597 h 0.0578 C 36.352797,4.9748502 36.624297,4.6434302 36.992,4.40481 c 0.367797,-0.2386299 0.773998,-0.3579398 1.2187,-0.3579398 0.825298,0 1.455997,0.2430396 1.892097,0.7291298 C 40.539001,5.2620802 40.757,5.9602799 40.757,6.8705802 Z" /><path
             id="path952"
             style="fill:#000000;fill-opacity:0.2;fill-rule:nonzero;stroke:none"
             d="m 45.753502,11.1393 c -0.141102,0.0398 -0.305702,0.0707 -0.4939,0.0928 -0.1838,0.0221 -0.344201,0.0331 -0.481003,0.0331 h -0.0064 c -1.069001,0 -1.603501,-0.5634 -1.603501,-1.6902097 V 5.2863898 H 42.071896 V 4.29212 h 1.096802 V 2.5952401 L 44.259099,2.19754 v 2.09458 h 1.4431 v 0.9942698 h -1.4431 V 9.38276 c 0,0.2297898 0.0235,0.4087496 0.0705,0.5368996 0.0513,0.1237404 0.126198,0.2121404 0.224499,0.2651404 0.0984,0.0486 0.235199,0.0773 0.4105,0.0862 0.3293,-0.0089 0.592201,-0.0398 0.788902,-0.0928 v 0.9611 z" /><path
             id="path954"
             style="fill:#000000;fill-opacity:0.2;fill-rule:nonzero;stroke:none"
             d="m 50.352299,11.3978 c -0.756798,0 -1.404598,-0.148 -1.943398,-0.4441 -0.538799,-0.2961 -0.949302,-0.7225 -1.231502,-1.2792901 -0.2822,-0.5567894 -0.423298,-1.2218399 -0.423298,-1.9951601 0,-0.7291198 0.134701,-1.3676596 0.404098,-1.9156199 0.273602,-0.5479498 0.654202,-0.9699602 1.141701,-1.2660298 0.491699,-0.3004899 1.0583,-0.4507299 1.699699,-0.4507299 0.590001,0 1.120301,0.1369896 1.5906,0.4109598 0.4747,0.2739801 0.850902,0.6606402 1.128902,1.1599802 0.277901,0.4949198 0.4254,1.0671797 0.442497,1.7167597 V 7.54006 c 0,0.2121101 -0.0064,0.4175902 -0.0192,0.6164399 h -5.233799 c 0.0086,0.7291298 0.233101,1.2859201 0.6735,1.6703701 0.444698,0.38003 1.056099,0.57003 1.8344,0.57003 0.341999,0 0.696999,-0.0486 1.064701,-0.1458 0.3677,-0.0972 0.7119,-0.2408 1.032602,-0.43086 L 52.7127,10.7084 c -0.705601,0.4596 -1.492298,0.6894 -2.360401,0.6894 z m 1.674103,-4.1427698 c 0,-0.4286404 -0.0855,-0.8108802 -0.256604,-1.14672 C 51.598801,5.77247 51.3615,5.5117502 51.057899,5.32616 50.758499,5.1361399 50.418598,5.0411401 50.037998,5.0411401 c -0.393299,0 -0.750397,0.095 -1.071098,0.2850199 -0.320702,0.1855902 -0.577198,0.4485201 -0.769699,0.7887802 -0.188099,0.3358397 -0.286499,0.7158699 -0.295002,1.14009 z" /><path
             id="path956"
             style="fill:#000000;fill-opacity:0.2;fill-rule:nonzero;stroke:none"
             d="M 59.646198,1.50818 H 60.7365 v 9.75042 h -1.090302 v -1.213 h -0.0513 c -0.218097,0.4021 -0.521698,0.7269 -0.910797,0.974401 -0.389103,0.247399 -0.850902,0.371199 -1.385403,0.371199 -0.564498,0 -1.073299,-0.1503 -1.526599,-0.4508 -0.453198,-0.3004 -0.808098,-0.718 -1.064698,-1.2527302 -0.2565,-0.5391102 -0.3848,-1.1533499 -0.3848,-1.8427096 0,-0.7379603 0.130398,-1.3941803 0.391198,-1.9686403 0.260902,-0.5788899 0.620002,-1.02741 1.077602,-1.3455701 0.4575,-0.3225899 0.9706,-0.4838796 1.539299,-0.4838796 0.500301,0 0.949299,0.1259399 1.347,0.37782 0.397598,0.2518797 0.7076,0.6009799 0.93,1.0472899 h 0.0385 V 1.50818 Z M 57.4911,10.5229 c 0.440399,0 0.823101,-0.1194 1.148098,-0.358 C 58.9641,9.9262896 59.2122,9.6191797 59.383202,9.2435598 59.558498,8.8635302 59.646198,8.4658298 59.646198,8.0504503 V 7.6394801 C 59.641899,7.1489801 59.5457,6.7004499 59.357498,6.29391 59.173698,5.8829498 58.921398,5.5581503 58.6007,5.31953 58.279999,5.0809102 57.922901,4.9615898 57.529598,4.9615898 c -0.384899,0 -0.737598,0.1237402 -1.0583,0.3712001 C 56.1506,5.57583 55.894001,5.91609 55.701599,6.35357 c -0.188198,0.4374699 -0.2822,0.9346099 -0.2822,1.4913902 0,0.5170202 0.0919,0.9787998 0.275803,1.3853502 0.188099,0.40654 0.440399,0.7247096 0.756798,0.9544896 0.316398,0.2254 0.662799,0.3381 1.0391,0.3381 z" /><path
             id="path958"
             style="fill:#000000;fill-opacity:0.2;fill-rule:nonzero;stroke:none"
             d="m 72.608803,10.0986 1.776695,-5.9257899 h 1.109604 L 73.352798,11.2586 71.954597,11.2652 70.896301,8.0438204 69.536499,11.2652 H 68.362701 L 65.745804,4.1728101 h 1.128898 L 69.004097,10.0986 h 0.0514 L 70.4665,6.7380199 69.619905,4.1661801 H 70.6718 L 72.557504,10.0986 h 0.0513 z" /><path
             id="path960"
             style="fill:#000000;fill-opacity:0.2;fill-rule:nonzero;stroke:none"
             d="M 77.8554,2.68804 H 76.649597 V 1.44189 H 77.8554 Z M 77.8041,11.2652 H 76.707298 V 4.1728101 H 77.8041 Z" /><path
             id="path962"
             style="fill:#000000;fill-opacity:0.2;fill-rule:nonzero;stroke:none"
             d="m 82.916,11.1393 c -0.141098,0.0398 -0.305702,0.0707 -0.493797,0.0928 -0.183906,0.0221 -0.344299,0.0331 -0.481102,0.0331 h -0.0064 c -1.069,0 -1.6035,-0.5634 -1.6035,-1.6902097 V 5.2863898 H 79.234399 V 4.29212 h 1.096802 V 2.5952401 l 1.0904,-0.3977001 v 2.09458 h 1.4431 v 0.9942698 h -1.4431 V 9.38276 c 0,0.2297898 0.0235,0.4087496 0.0705,0.5368996 0.0513,0.1237404 0.126197,0.2121404 0.224495,0.2651404 0.0984,0.0486 0.235198,0.0773 0.410499,0.0862 0.3293,-0.0089 0.592201,-0.0398 0.788902,-0.0928 v 0.9611 z" /><path
             id="path964"
             style="fill:#000000;fill-opacity:0.2;fill-rule:nonzero;stroke:none"
             d="M 90.003502,11.2652 H 88.9067 V 7.11584 c 0,-0.69378 -0.151802,-1.21522 -0.455398,-1.5643101 C 88.152,5.19801 87.713699,5.0212498 87.136398,5.0212498 c -0.316398,0 -0.604995,0.08838 -0.865898,0.26514 C 86.009697,5.46315 85.800201,5.70398 85.641998,6.0088902 85.483803,6.3137999 85.3918,6.6496401 85.366203,7.0164099 V 11.2652 H 84.269402 V 1.50818 h 1.096801 v 3.9174 h 0.0449 c 0.175301,-0.4330501 0.446801,-0.7711 0.814499,-1.0141501 0.367798,-0.2430401 0.774002,-0.3645597 1.218697,-0.3645597 0.829506,0 1.462402,0.2430396 1.898498,0.7291298 0.440407,0.4860802 0.660706,1.1842799 0.660706,2.0945802 V 11.2652 Z" /><path
             id="path966"
             style="fill:#000000;fill-opacity:0.2;fill-rule:nonzero;stroke:none"
             d="M 101.676,4.0648098 99.639503,7.37712 101.689,11.1238 H 99.403099 L 98.010696,8.6531801 96.526299,11.1238 H 94.2407 L 96.394997,7.37712 94.293198,4.0648098 h 2.259399 l 1.471207,2.3620601 1.339897,-2.3620601 z" /><path
             id="path968"
             style="fill:#000000;fill-opacity:0.2;fill-rule:nonzero;stroke:none"
             d="M 102.745,4.0648098 V 11.1238 h 2.076 V 7.3906999 7.1735001 c 0,-0.7602101 0.551,-1.4253798 1.182,-1.4253798 0.683,0 1.129,0.5158496 1.129,1.3167796 V 11.1238 h 2.076 V 7.1735001 c 0,-0.7602101 0.512,-1.4253798 1.116,-1.4253798 0.71,0 1.17,0.5158496 1.17,1.3167796 V 11.1238 h 2.075 V 7.0377498 c 0,-1.1538797 -0.276,-3.2444399 -2.614,-3.2444399 -1.09,0 -1.826,0.5565803 -2.167,1.2081802 -0.421,-0.7873502 -1.17,-1.2081802 -2.194,-1.2081802 -0.933,0 -1.563,0.3936799 -1.879,0.9502499 l -0.354,-0.67875 z" /><path
             id="path970"
             style="fill:#000000;fill-opacity:0.2;fill-rule:nonzero;stroke:none"
             d="M 114.644,4.0648098 V 11.1238 h 2.075 V 4.0648098 Z M 114.368,1.87923 c 0,0.74663 0.591,1.3575101 1.326,1.3575101 0.71,0 1.301,-0.6108801 1.301,-1.3575101 0,-0.73305 -0.591,-1.35750101 -1.301,-1.35750101 -0.735,0 -1.326,0.62445101 -1.326,1.35750101 z" /><path
             id="path972"
             style="fill:#000000;fill-opacity:0.2;fill-rule:nonzero;stroke:none"
             d="M 117.921,4.0648098 V 11.1238 h 2.075 V 7.1735001 c 0,-0.7602101 0.552,-1.4253798 1.182,-1.4253798 0.723,0 1.13,0.4751196 1.13,1.3167796 V 11.1238 h 2.075 V 6.9698701 c 0,-2.04983 -0.932,-3.1765602 -2.614,-3.1765602 -0.932,0 -1.563,0.3936799 -1.878,0.9502499 l -0.355,-0.67875 z" /><path
             id="path974"
             style="fill:#000000;fill-opacity:0.2;fill-rule:nonzero;stroke:none"
             d="m 128.679,11.2732 c 0.815,0 1.576,-0.2987 2.168,-0.8145 l 0.367,0.6651 h 1.564 V 1.9742601 L 130.702,1.24121 v 3.24443 c -0.57801,-0.4344 -1.27401,-0.6923301 -2.023,-0.6923301 -1.944,0 -3.507,1.66973 -3.507,3.7467101 0,2.0634098 1.563,3.73318 3.507,3.73318 z m -1.445,-3.7739 c 0,-1.00456 0.775,-1.8190598 1.76,-1.8190598 0.986,0 1.774,0.8144998 1.774,1.8190598 0,1.0317001 -0.788,1.8326302 -1.774,1.8326302 -0.985,0 -1.76,-0.8009301 -1.76,-1.8326302 z" /></g></g></g></g></svg>